<svg xmlns="http://www.w3.org/2000/svg" viewBox="0 0 1406.09 900.35"><defs><style>.cls-1{fill:#f88;}</style></defs><title>STATES2</title><g id="WY"><path class="cls-1" d="M560.31,227.9h0l-11,74.5-4.61,31.1s18.11,2.76,43.77,6.2c31.7,4.25,74.91,9.54,109.73,11.92l4.24-60.22,4.18-59.3L561.88,217.3Z" transform="translate(-60.42 -53.76)"/></g><g id="WI"><path class="cls-1" d="M1057,220.66c-1.53.5-2.76,5-3.39,6.33a40.86,40.86,0,0,1-4.21,6.65c-3.06,4-5.56,8.44-8.6,12.49a10.28,10.28,0,0,1,.35-2.48,18.59,18.59,0,0,0-.1-2.33c.07-3.14,1.94-5.39,3.43-8,1.83-3.17,1.93-6.74,3.34-10,.13-.3.27-.61.41-.91a11.06,11.06,0,0,1-2.45-1.19c-.79-.66-1.34-1.94-2.33-2.39s-2.39.83-3.06.36.14-2.38.28-2.91c.3-1.22.29-2.41.52-3.64.15-.79.93-2,.86-2.8-.16-1.48-1.14-.91-2.25-1.27a16.84,16.84,0,0,0-2.84-1.15c-1.19-.18-2.49.42-3.07-.63-.5-.9.33-2.19-.49-3s-2.32-.13-3.39-.25-1.95-1-3.09-1-2,.74-3.22.7a3.94,3.94,0,0,1-2.77-1.29c-2.39-2-5.93-2.7-8.86-3.19-.84-.14-1.67-.42-2.52-.56a7.44,7.44,0,0,1-1.82-.14c-1.4-.28-2.8-.56-4.2-.7s-2.52-.84-3.92-1-2.38-.28-3.5-.42c-2.8-.42-4.48-3.08-5.46-5.46a12.86,12.86,0,0,0-1.82-2.94,17.2,17.2,0,0,0-2-1.4,2.26,2.26,0,0,0-.38-.19c-2,.81-2.55-1.1-4.21-2.11-2.52-1.55-2.29,1.93-4.39,1.73-.78,1.45-1.13,2.34-3,1.6-.51-.2-1.46-.53-1.48-1.22,0-1.12.93-.52,1.59-.95,1.71-1.1.26-2.53.28-4s1.38-2.46,1.06-4.19c-3.14.39-6.26.82-9,2.51-2.5,1.55-4.56,3.38-7.45,4.23-1.85.54-6.17,1-7.94.12h0a5.73,5.73,0,0,1-1,.06c-4.79,0-3.29,5-3.1,8s.27,5.85.35,8.77c.09,3.1.6,4.2-1.94,6-3.47,2.39-7.28,5.75-7.78,10.2-.13,1.2-.65,3,.09,4.11s2.39,1.35,3.09,2.33c1.11,1.58.48,2.46-.41,3.83A7.41,7.41,0,0,0,940,231c-.31,3-.44,6.15-.89,9.15-.17,1.12-.45,3.23.19,4.26s2.64,1.61,3.56,2.41c1.31,1.14,1.73,2,3.48,2.3a40.78,40.78,0,0,1,4.12.88,15.05,15.05,0,0,0,3.92,1c1.53.07,2.66-.64,3.88.6a39.54,39.54,0,0,1,2.24,3.37c.85,1.15,1.69,2.35,2.43,3.54a8.17,8.17,0,0,0,3.21,2.94c1.59,1,1.35,1.65,2.29,3.17,1.52,2.48,4.79,2.73,6.44,4.9.94,1.24.92,2.64,1.2,4.07.17.87.68.74.48,1.63s-1.11,1.13-1.4,1.85a6.37,6.37,0,0,0-.1,2.87c0,.19,0,.37.05.56a13.52,13.52,0,0,0,1.54,5.55,7.87,7.87,0,0,1,1.25,4.15c-.09,1.66-1.19,1.73-1.83,3-1.5,3,2,5.21,2.91,7.65.49,1.32.26,2.89,1.58,3.84s2.87.46,4.26.78c1.85.44,2.51,1.67,3.11,3l61.39-5.69c0-2.3.05-4.63-.15-7-.49-5.64-4.28-10.34-3.87-16.19.18-2.62,1.22-4.93,2-7.38a25.62,25.62,0,0,0,1.07-7.19c.23-5.45,2.09-10.47,2.64-15.85.28-2.84.23-5.79,1-8.55.75-2.5,2.43-4.39,3.79-6.56a17.68,17.68,0,0,0,2.67-8.82C1058.54,224.36,1058.7,220.1,1057,220.66Z" transform="translate(-60.42 -53.76)"/></g><g id="WV"><path class="cls-1" d="M1265.28,363c-1.5,1.13-1.62,3.41-1.63,5.31a.91.91,0,0,0,0,.15c0,.05,0,.1,0,.15s0,.1,0,.15c0,.5,0,1,0,1.51,0,.25,0,.51,0,.76s0,.5-.09.75a8.54,8.54,0,0,1-.48,1.87h0c-.09.23-.19.46-.31.69v0a4.72,4.72,0,0,0-.22.5c0,.12-.09.25-.13.38l-.06.17c-.09.27-.17.55-.26.83l-.08.25-.07.19-.1.27-.28.33a19,19,0,0,0-1.77,2.27,14.13,14.13,0,0,0-.93,2.61h0c0,.31,0,.65,0,1,0,.12,0,.24,0,.36s0,.14,0,.2a2.54,2.54,0,0,1-.09.39,2.87,2.87,0,0,1-.21.55,2.05,2.05,0,0,1-.35.47,1.74,1.74,0,0,1-.63.29l-.37.08-.26.06-.26.07a1.53,1.53,0,0,0-.31.12h0l-.11.06a1.81,1.81,0,0,0-.33.27l-.14.15c-.12.16-.23.34-.34.53s-.2.37-.3.57h0c-.1.2-.19.4-.27.61l-.26.64-.23.64h0l-.22.64c-.15.42-.29.83-.43,1.2a21.32,21.32,0,0,1-1.5,2.73c-.13.22-.27.42-.41.63l-.19.28q-.47.68-1,1.32l-.49.64a5.81,5.81,0,0,1-1.08,1.53l-.2.18h0l-.21.16-.34.32-.07.05a.85.85,0,0,1-.18.11l-.06,0-.06,0-.21,0H1247V399c-.56.19-1.12-.56-1.68-.75-.18,0-.39,0-.63,0l-.24,0-.52.08c-.34.06-.69.14-1,.23l-.55.17h0l-.17.07a2.47,2.47,0,0,0-.31.14l-.13.07-.16.1a4.64,4.64,0,0,0-.43.33l-.2.18-.18.18a6.55,6.55,0,0,0-1.48,2.6c-.11.32-.2.65-.28,1-.24,1-.4,2-.61,3-.12.36-.16.72-.28,1.12l-.06.22a2.7,2.7,0,0,1-.09.26l-.12.27c-.19.56-.75.93-1.12,1.68h0s0,.08,0,.12l0,.13c0,.07,0,.15,0,.22-.09.69,0,1.43,0,2.14a3.83,3.83,0,0,1-.07.43,2.35,2.35,0,0,1-.18.5l-.28.44c-.09.15-.19.3-.29.44a2,2,0,0,1-.43.45,1,1,0,0,1-.19.11l-.1,0h0l-.27.12h0a8,8,0,0,1-.85.29l-.11,0-.4.16-.13.07-.11.06a2.18,2.18,0,0,0-.79,1,1.88,1.88,0,0,0-.11.43,3,3,0,0,0,0,.47h-.19l-.2.77c-.44,1.67-.9,3.33-1.45,4.94-.12.33-.24.67-.36,1h0c-.13.33-.25.66-.39,1l-.21.49c-.75,1.5-1.31,3-2.05,4.29-.2.3-.39.66-.58,1l-.13.23-.22.37-.12.18a4.07,4.07,0,0,1-.25.33l-.12.13a2.28,2.28,0,0,1-.25.22l-.15.11a1.43,1.43,0,0,1-1,.22,15.47,15.47,0,0,1-1.64,2.14l-.22.28-.15.17c-.1.12-.2.23-.31.35l-.17.17a5.38,5.38,0,0,1-.54.49,5.78,5.78,0,0,1-.58.44h0a5.86,5.86,0,0,1-.61.36,5.1,5.1,0,0,1-.63.26h0l-.4.13-.37.12-.18.06-.18.06a10.08,10.08,0,0,0-1,.39c-.22.1-.44.22-.68.36-.58.47-1.1.87-1.58,1.28-.2.16-.38.33-.57.5h0l-.28.27-.35.26h0c-.23.16-.46.31-.69.44h0c-.58.34-1.17.62-1.75,1-1.12.56-2.05,1.49-3.17,2.06a5.27,5.27,0,0,1-2.42.18,15.14,15.14,0,0,0-2.8.56c-.94.19-1.87.19-2.8.38a5.07,5.07,0,0,0-1.15.41h0l-.47.24h0a10.27,10.27,0,0,1-1,.47,3.19,3.19,0,0,1-2.61-.37,2,2,0,0,1-.56-1.3,1.43,1.43,0,0,1-.06-.48.61.61,0,0,0,0-.23,1.18,1.18,0,0,0-.32-.41,10.19,10.19,0,0,1-2-3s0,0,0,0l-.18-.29-.19-.27h0a2.27,2.27,0,0,0-.2-.25,1.91,1.91,0,0,0-1.31-.69,2.39,2.39,0,0,0-1.49.41h0a12.79,12.79,0,0,0-2.73-5.28c-2.55-3.17-4.57-5.2-6.36-8.76s-4.39-7.15-5-10.92q-.09-.52-.19-1c0-.16-.07-.31-.11-.46l0-.2c0-.11-.06-.23-.09-.34s-.09-.31-.14-.46l-.13-.37,0-.07-.14-.35-.16-.36c1.32-.36,4.34.08,5.24-.59,1.12-.84.56-2.52,1.68-3.36.84-.28,1.12,0,2-.84.28-.28.84-.84.84-1.4.28-1.4-1.4-2.52-1.68-3.64-.56-1.68,0-2.24.56-3.64.84-1.68.28-4.48,1.68-5.6,1.4-1.4,2,.28,3.08.84a4.59,4.59,0,0,0,2.8-.28c.84-.84.55-1.4.55-2.24,0-1.4-.28-3.08.29-4.2a11.12,11.12,0,0,1,3.36-2.8c1.12-1.4,3.36-1.68,4.76-2.8a12.5,12.5,0,0,0,2-2c.28-.84,1.4-1.68,1.68-2.52s.28-2.24,1.12-2.8c0-.56.28-.56.56-1.12a5.49,5.49,0,0,1,2.52-2.52,9.8,9.8,0,0,0,2.24-1.4,7.74,7.74,0,0,0,.28-2.52c0-1.68-.84-3.08-.84-4.76a16.42,16.42,0,0,1,.56-5.32,47.68,47.68,0,0,0,1.68-4.76,9.41,9.41,0,0,0-.62-6.58c-.23-.52-.49-1-.77-1.54.56-.84.28-2.24.56-3.08.56-.84,2-1.12,2.24-2a1.35,1.35,0,0,0,.75,0l4.57,27.2,20.63-3.72c.09.78.11,1.51.23,2.33.14,1.54.28,3.22.41,4.9s.28,3.5.56,5.18a37.13,37.13,0,0,1,.56,3.92c.28-.14,1-.28,1-.7.79-.8,1.44-1.13,1.92-2.27s.22-2.24.77-3.15c1.36-2.26,3.74-.06,5-2.17.62-1.05.66-2,1.57-2.91a14.72,14.72,0,0,1,2.83-1.93,10.8,10.8,0,0,1,6.7-2l.27,0,.34,0,.39,0,.26,0,1.17.15.7.08.35,0,.52.05.43,0h.42l.5,0Z" transform="translate(-60.42 -53.76)"/></g><g id="WA"><path class="cls-1" d="M353.73,55.87c.56.72.9,1,.34,1.74s-.83,1.22-.2,2c1.14,1.39,3.24,1.84,4.86,2.28.19.45,1,1,1,1.48s-.9,1.23-1,1.81c-.12.75.48.72.75,1.37s-.09,1.52-.11,2.22c-1.69-.15-3-1.21-4.75-.9a6.1,6.1,0,0,0-4.13,2.72c-.57,1.06-.75,3.49.35,4.32,1.43,1.08,2.22-.72,2.51-1.78.14-.5.41-1.59,1.06-1.7s.74.5.73,1a3.19,3.19,0,0,1-.84,1.92c-.37.46-1.28,1-1.4,1.66-.24,1.06,2.16,1.32,2.81,2.1s1.2,2.93-.51,2.8c-1.2-.08-1.88-1.67-2.62-2.43-1-1-1.86-2.18-3.35-2.24,0,.51,1,1.39,1.36,1.87.5.71,1.1,1.35,1.63,2,1.14,1.51,1.82,2.93,1.27,4.83-.58,0-1.75-1.17-2.12-1.67-.71-1-.7-2.21-1.22-3.24-.44.82-.46,1.17-1.15.25-.5-.66-1-1.42-1.94-1.3-2.15.28-.47,3.64-2.05,3.83-.75,0-.75-1.22-.66-1.68,0-.84.1-1.4-.56-2.06-1.3-1.21-3-1.21-4.66-1.49a14.86,14.86,0,0,1-4.29-1.58,30.64,30.64,0,0,0-4.67-1.59c-1.77-.56-3-2-4.29-3.08-1.49-1.22-2.89-2.52-4.29-3.74-1.92-1.66-3.17-4-5.12-5.64-1.19-1-4-1.78-4.64.4-.38,1.31,0,2.81-.45,4.21a26.83,26.83,0,0,0-1.11,3.79,21.16,21.16,0,0,0-.65,5.9c.16,1.83,1,3.58,1.46,5.36.83,3.27.36,7.37.79,10.75a47.87,47.87,0,0,1,.36,9.06c-.12,2-.18,4.07-.3,6-.08,1.37.26,3.24-.29,4.53-.45,1-1.36,1.84-1.88,2.9s-.62,2.36-1.4,3.12c.44,1.89.26,2.95,1.62,4.4s2,1.14,3.76,1.51,2,1.35,3.09,2.63a8.62,8.62,0,0,0,1.89,1.44h0a5,5,0,0,1,2,.73,4.53,4.53,0,0,1,.93.38c.38.37.56.74,1.12.93l1.12.56c.37.19.93.93,1.3.93,1.12.37,1.31-1.68,2.05-2.24,1.12-.74,2.24.75,2.8,1.68a2.46,2.46,0,0,1,.56,2.24c-.19.74-.75,1.12-.75,1.87,0,.93.93,1.31,1.31,2.24.56,1.5.18,1.68-.75,2.8a2.78,2.78,0,0,0-.75,2.61c.19,1.12,1.12,1.68,1.5,2.8a5.61,5.61,0,0,1,.37,1.87c0,.37-.19.75-.19,1.31,0,.75.19.75.94,1.12a12.5,12.5,0,0,0,2.62.18c1.3,0,1.68.56,2.61,1.49,1.52,1.52,2.94.61,4.66.55a14.33,14.33,0,0,1,2.25.39c1.36.12,2.82-.47,4.29-.15s2.55,1.08,4.29,1.08c1.58,0,2.88-.49,4.29.32,1.63.95,1.71,1.66,3.74,1.92a29.81,29.81,0,0,1,3.54,1.11,3,3,0,0,0,1.82,0,31.64,31.64,0,0,1,4.71,0c1.55.24,2.83,1.39,4.49,1.14.69-.11,1.08-.72,1.82-.72.44,0,.92.75,1.72.71s1.13-.57,1.81-1c1-.57.72-.63,1.92-.9a43.83,43.83,0,0,1,4.33-1.26c1.07-.06,1.29.7,2.21,1,.65.24,1.43,0,2,.26s.73,1,1.2,1.24a13,13,0,0,0,2.39.42,15.73,15.73,0,0,0,4.29.74c1.89-.18,5.87-2.76,7.47-.93l39.76,8v-.19l16-85.53c-68.6-13.86-109-26.1-109-26.1C352.69,54.57,353.1,55.07,353.73,55.87Z" transform="translate(-60.42 -53.76)"/></g><g id="VA"><path class="cls-1" d="M1337,441.15h0l-.14,0-.32.06-.11,0-45.56,8-.52.09c-10.56,1.79-22.32,3.73-34.84,5.76h-.08l-1.06.17-29.68,4.67-1.72.26-13.18,2.07L1197.56,464h-.1c-14.62,2.06-37.94,5.32-45.18,6.23l.19-.26.13-.16c.12-.16.25-.31.38-.47s0,0,0,0l.09-.1.09-.1h0l.31-.33.22-.21.31-.27.37-.31.2-.15a9.51,9.51,0,0,1,1-.64c.26-.15.53-.3.81-.43a13.54,13.54,0,0,1,1.35-.55l.48-.16,1.26-.41.27-.1.74-.31.24-.12a10.81,10.81,0,0,0,1.78-1.17,5.15,5.15,0,0,1,.59-.39,10.15,10.15,0,0,1,1.28-.63l1-.44.4-.17a7.79,7.79,0,0,0,.81-.4l.17-.11.18-.12a1.44,1.44,0,0,0,.17-.13l.18-.14.17-.15.17-.16c.47-.44.74-.83,1-1.15l.16-.16.18-.16.11-.08.14-.09.06,0,.08,0,.21-.08h0l.25-.08.14,0,.15,0,.16,0,.17,0,.18,0L1172,459a4.74,4.74,0,0,0,.69-.12l.16,0,.15,0h0l.16-.05a3.19,3.19,0,0,0,.48-.22l.17-.1.17-.12.11-.08.07-.05.17-.15.16-.16,0,0,.21-.22a6.89,6.89,0,0,0,.67-.89c1.42-2.2,1.89-5.2,3.47-7.24a16.18,16.18,0,0,1,1.35-1.47l.21-.21.59-.58,0-.06.21-.2c.28-.27.55-.56.79-.83s.39-.44.55-.62l.05-.05.15-.15a3.89,3.89,0,0,1,.36-.33l.09-.07a6.17,6.17,0,0,1,1.13-.69l.68-.33.16-.08a2.38,2.38,0,0,0,.37-.24c1.32-.9,2.16-2.59,3.12-3.41h0l0,0,0,0,.06,0,.11-.08h0a2.42,2.42,0,0,1,1.48-.4,1.67,1.67,0,0,1,.72.21h0a2.44,2.44,0,0,1,.45.34l.14.14.2.25h0c.07.08.13.17.19.27l.18.3a10.33,10.33,0,0,0,2,3,1.16,1.16,0,0,1,.32.41.59.59,0,0,1,0,.23,1,1,0,0,0,0,.23,1.62,1.62,0,0,0,0,.25,2,2,0,0,0,.43,1.15l.13.15a1.34,1.34,0,0,0,.51.31,4,4,0,0,0,2.1.07c.35-.14.67-.31,1-.47h0l.47-.23h0a4.77,4.77,0,0,1,1.15-.41c.94-.19,1.86-.19,2.8-.38l.35-.08a11.08,11.08,0,0,1,2.45-.48,10.39,10.39,0,0,0,1.87,0l.14,0a1.37,1.37,0,0,0,.27-.09l.14-.06.42-.23c.27-.16.53-.33.79-.52a15.16,15.16,0,0,1,2-1.31h0c.59-.35,1.16-.62,1.75-1h0a7.78,7.78,0,0,0,.69-.44h0l.34-.26.28-.27h0c.18-.17.37-.34.57-.5.48-.41,1-.81,1.58-1.28.23-.14.46-.26.67-.36s.65-.26,1-.39l.18-.06.18-.06.37-.12.4-.13h0a5,5,0,0,0,.63-.26,5.65,5.65,0,0,0,.61-.36h0a5.88,5.88,0,0,0,.58-.44,5,5,0,0,0,.54-.49l.17-.17c.11-.12.21-.23.31-.35l.15-.16.11-.15.12-.14a15.64,15.64,0,0,0,1.63-2.14,1.44,1.44,0,0,0,1-.22l.16-.11.24-.22.12-.14c.09-.1.17-.21.25-.33l.12-.18.21-.37.13-.23c.2-.36.38-.71.58-1,.75-1.3,1.31-2.8,2.06-4.29l.21-.5c.14-.32.26-.66.38-1h0c.13-.33.24-.67.36-1,.54-1.61,1-3.27,1.45-4.94l.2-.77h.19c0-.08,0-.16,0-.24s0-.16,0-.23a2,2,0,0,1,.1-.43,2.25,2.25,0,0,1,.8-1l.11-.06.13-.07.4-.15.11,0a8.27,8.27,0,0,0,.85-.29h0l.27-.12h0l.1,0,.19-.11a2.2,2.2,0,0,0,.43-.46,3.83,3.83,0,0,0,.29-.44l.29-.44h0a1.66,1.66,0,0,0,.1-.24,1.68,1.68,0,0,0,.08-.26,2.51,2.51,0,0,0,.07-.43,5.47,5.47,0,0,0,0-.75c0-.37,0-.74,0-1.1,0-.1,0-.19,0-.29s0-.15,0-.23,0-.08,0-.13l0-.13c.37-.74.93-1.12,1.12-1.68l.12-.27a2.48,2.48,0,0,0,.1-.26c0-.07,0-.15.06-.22.12-.41.16-.77.28-1.13.21-1,.37-2,.61-3,.08-.33.17-.66.28-1a6.66,6.66,0,0,1,1.47-2.59l.18-.18.2-.17a4.52,4.52,0,0,1,.43-.33l.16-.1.13-.07.31-.14.17-.06h0l.55-.17a10.22,10.22,0,0,1,1-.23l.52-.08.25,0a6.16,6.16,0,0,1,.63,0c.56.19,1.12.93,1.68.74v.19h.59l.21,0,.06,0,.06,0a.71.71,0,0,0,.18-.11l.07-.06.33-.32.2-.16h0l.2-.18a5.86,5.86,0,0,0,1.08-1.53l.49-.64q.49-.64,1-1.32l.19-.28c.14-.2.28-.42.41-.63a21.52,21.52,0,0,0,1.5-2.73l.43-1.2.22-.64h0l.23-.64c.09-.22.17-.44.26-.65s.18-.42.27-.62h0c.1-.19.19-.38.3-.57s.22-.37.34-.53l.14-.15a1.6,1.6,0,0,1,.33-.27l.11-.06h0a1.36,1.36,0,0,1,.31-.12l.27-.08.26-.05.37-.09a1.66,1.66,0,0,0,.63-.29,2.07,2.07,0,0,0,.34-.47,3.17,3.17,0,0,0,.3-.95c0-.06,0-.13,0-.2s0-.23,0-.35a2.35,2.35,0,0,0,0-.26c0-.26,0-.52,0-.75a14.09,14.09,0,0,1,.93-2.61,19.31,19.31,0,0,1,1.77-2.27l.28-.33.1-.27.07-.19.08-.25c.09-.28.18-.56.26-.83l.06-.17c0-.13.09-.26.14-.38a3.91,3.91,0,0,1,.21-.5v0a6.84,6.84,0,0,0,.31-.69h0a8.6,8.6,0,0,0,.48-1.87q.05-.39.09-.76c0-.25,0-.51,0-.76,0-.5,0-1,0-1.52v-.15s0-.1,0-.15a.74.74,0,0,1,0-.15c0-1.91.14-4.18,1.63-5.32a3.26,3.26,0,0,1,1-.52,8.79,8.79,0,0,1,2.6-.3,5.73,5.73,0,0,1,2.45.4,13.57,13.57,0,0,1,2,1.32l0,0,.07,0,.12.06a8.66,8.66,0,0,0,2.35.64h0a2.15,2.15,0,0,1,.75.23,4.15,4.15,0,0,1,.88.61l.16.15a5.5,5.5,0,0,1,.43.47c.08.11.16.21.23.33l.1.17a5.81,5.81,0,0,0,.43.9l.07.07h0a.46.46,0,0,0,.2.08h0a1.07,1.07,0,0,0,.31,0l.21,0,.17,0a4.62,4.62,0,0,1,2.38-.14,2.26,2.26,0,0,1,.43.16h0a2.11,2.11,0,0,1,.53.36h0l.15.14a2.49,2.49,0,0,1,.32.42,2.25,2.25,0,0,1,.18.31h0a3.15,3.15,0,0,1,.14.32l.06.17a5.53,5.53,0,0,1,.15.6h0c0,.16.06.32.09.48l0,.25c0,.21.07.4.11.56a2.14,2.14,0,0,0,.36.76h0l.17.19h0a4,4,0,0,0,.34.3l.18.18.41.38,0,0,.09.07.06,0,.1.07.09,0a3,3,0,0,0,1.12,0c1.54.14,2.94,2,4.06,2.8a12.47,12.47,0,0,0,2.1.84,3.34,3.34,0,0,1,.49.31,7.69,7.69,0,0,1,.72.61l.11.11.21.22h0a3.38,3.38,0,0,1,.43.57,1.83,1.83,0,0,1,.2.56c.07.46-.17.74-.48,1.26a1.53,1.53,0,0,0-.17.43c0,.06,0,.12,0,.17s0,.1,0,.15a1.42,1.42,0,0,0,0,.15,2.82,2.82,0,0,0,0,.53h0c0,.12,0,.24.07.36s.07.38.11.57l.42,2.1a1.07,1.07,0,0,1,0,.47,1.67,1.67,0,0,1-.52.8l-.39.36-.2.19a7.35,7.35,0,0,0-1.95,3.25,1.29,1.29,0,0,0,0,.38,1.41,1.41,0,0,0,.16.48l.09.13h0l.15.17a2.35,2.35,0,0,0,1.56.47,6.27,6.27,0,0,1,1.27.08h0a8.78,8.78,0,0,0,5.88,4.22c2.88.42,5.2-.63,8.2.52,2.26.88,5.59,1.58,7.5,3,3.52,2.63.08,4.55-.65,7.23-3.41-.54-1.59,4.58.13,5.43s5.4-1,4.68,3.15-2.66-2.09-4.81.36c-2.31,2.63,1.65,4.23,3,5.65,1.54,1.58,4,4,3.78,6.41,1.64-.1,2.49,1.2,3.61,1.32,1,.09,1.18-.72,2.18-.75,2,0,3.59,1.78,4.12,3.61.27.92-.06,1.88.46,2.71.4.63,1.58.91,2.1,1.57C1337.16,437.78,1337,439.49,1337,441.15Z" transform="translate(-60.42 -53.76)"/></g><g id="VT"><path class="cls-1" d="M1371.15,180.34a3.87,3.87,0,0,0,0,2.8,7.6,7.6,0,0,1,.42,1.4v1.54c0,3.19-2,6.1-3.93,8.54-.68.87-1.9,1-2.49,1.93-.73,1.22,0,2.67.26,3.95.24,1.06.76,2,1,3.08.45,2.07-.6,4.37-1,6.3-.27,1.26.53,1.92.74,3.08a11.67,11.67,0,0,1-.42,3.79c-.2,1-.92,2.06-.56,3.07s1.44,1.31,1.41,2.66c0,1-.83,2-.82,3.08,0,1.3.9,2.3,1.09,3.64.37,2.49-1.4,4.28-.84,6.71.5,2.18,2.23,4.16,2.52,6.31a13,13,0,0,1,0,2.33c-7.22,1.57-13.88,3-16.56,3.5a11.37,11.37,0,0,1-.42-2.19,10.8,10.8,0,0,0-.14-2.1c-.14-1.54.14-3.08-.14-4.62a25.36,25.36,0,0,0-1.26-4.34,10.47,10.47,0,0,1-.7-2.24c-.14-.28,0-.7-.14-1.12a4.94,4.94,0,0,0-.7-1.12c-.56-1.4-1.4-2.66-1.82-4.06s-1.68-2.66-2.52-4.06a5.06,5.06,0,0,1-.42-2.52v-2.24a15.18,15.18,0,0,1,0-2.52,6.66,6.66,0,0,0-.14-2.38c-.7-2.8-1.82-5.74-.84-8.68a9.3,9.3,0,0,0,.42-2.1,3.84,3.84,0,0,1,.28-1.82c.14-.42.42-.7.56-1.12s.14-.7.14-1.12a4,4,0,0,0-.56-1.82,19.72,19.72,0,0,1-1.26-2.38,4.7,4.7,0,0,1-.14-2,7.18,7.18,0,0,0-.84-3.08,14.47,14.47,0,0,1-.56-4.2c-.13-1.18-.26-2.48-.51-3.67l5.29-1.17c5.4-1.19,10.83-2.31,16.21-3.57,2.84-.66,5.89-.72,8.55-2l.15-.08a3.77,3.77,0,0,0,0,1.12c.28,1,1.12,1.54,1.4,2.52a1.94,1.94,0,0,1,0,1.54A6.63,6.63,0,0,0,1371.15,180.34Z" transform="translate(-60.42 -53.76)"/></g><g id="UT"><path class="cls-1" d="M588.43,339.7,573.45,459c-38.29-4.59-76.92-10.43-113.22-17.69L485,294.63c20.73,3.06,42.26,5.72,64.25,7.77l-4.61,31.1S562.78,336.26,588.43,339.7Z" transform="translate(-60.42 -53.76)"/></g><g id="TX"><path class="cls-1" d="M935.79,651.55a9.17,9.17,0,0,1-.56-1.49,4.6,4.6,0,0,1,.09-1.59c.19-1.59.84-3.17.47-4.76a8.15,8.15,0,0,0-1.31-2.89c-.56-.94-1.4-1.59-2-2.52-.28-.47-.56-1-.84-1.5a14.09,14.09,0,0,1-.93-1.21,10.69,10.69,0,0,1-.93-2.43c-.18-.74,0-1.77-.46-2.33-.9-1.09-1.51-1.3-1.66-2.89-.13-1.36-.42-1.18-1.3-2.08-1-1.06-2.36-3-2.26-4.55l-.86-26.84-.63-19.82c-1.46-.62-2.86.54-4.21,1.38a4.94,4.94,0,0,1-2,.58c-.86.16-1.63,1.16-2.52.86s-1-1.09-1.56-1.72c-.14-.17-.29-.34-.45-.51s-.53-.54-.76-.8a7.77,7.77,0,0,0-1.89-1.78,3.8,3.8,0,0,0-2.43-.36c-1.67,0-2.09-1.86-3.54-2.22-.81-.2-1.47.3-2.14.18s-1.38-.92-2-1.28a13.14,13.14,0,0,0-3.89-1.52,5.4,5.4,0,0,0-2.52.12c-1,.31-1.41,1.17-2.43,1.4-1.64.37-2.49-1.4-4.19-1.24-2.75.25-5.6.93-8.31,1.42a24.89,24.89,0,0,1-5.32.54,27.65,27.65,0,0,0-5.44.36c-2,.28-3,.33-4.74-.81-1.43-.95-3.1-.79-4.76-.39-.86.2-1.69.89-2.6.87-1.17,0-1-1.2-2.34-1.07a7,7,0,0,1-2.61,0c-.75-.18-1.3-.58-2.05-.44-1.6.29-2.41,2-4,2.33-1.31.31-3.37.43-4.23-.77a16.57,16.57,0,0,0-1.58-1.77c-1.22-1.32-1.62-2.58-3.43-.93-1,.88-2.71,3-4.22,2.44s-2.17-3.12-3.1-4.23c-.59-.7-1-2.06-1.91-2.45s-1.22.19-2,.52-1.09-.05-2-.42-1.66.14-2.41-.18c-1,.44-2.5-.6-3.2-1.29-.42-.43-.67-1-1.3-1.19s-1,.22-1.69.17c-1.28-.87-2.95,0-4.47-.47a18.58,18.58,0,0,0-2.33-.3c-1-.18-1.81-.38-2.77-.48a2.09,2.09,0,0,1-1.92-1.27c-.82-1.66-1.42-3.95-3.05-5-1.89-1.25-3.53,0-5.51-.21-1.64-.15-2.33-1.76-4.11-1.49-.93.14-1.4.56-2.33.12s-.67-1.22-1.3-1.89-1.09-.52-1.5-1.5a3.79,3.79,0,0,0-3.36-2.24,1.09,1.09,0,0,1-.56-.09c-.26-.18-.11-.44-.25-.62l1.75-55.42-69-2.55L704.74,616.9l-90.64-5.39,0,.14a3.13,3.13,0,0,0,.28.61s0,.14,0,.18.09.18.14.24a1,1,0,0,0,.24.37c.14.09.32.14.47.23a2.84,2.84,0,0,1,.42.33c.28.19.75.37.65.79a2.38,2.38,0,0,0-.08.27l1.43.15a13.9,13.9,0,0,0,.69,1.66,6.45,6.45,0,0,0,2.45,2.38c1.33.82.87,1.79,1.46,3,1,2,3.78,2.63,3.95,5.1a2.36,2.36,0,0,0,1.63,2.39,11.7,11.7,0,0,1,3.33,2.65,30.43,30.43,0,0,1,3.71,5.22,5.82,5.82,0,0,0,2.33,1.88,3.82,3.82,0,0,1,2,2.85c.24,1.17.34,2.18,1.32,2.93s2.27,1.2,2.85,2.07.9,2.11,1.59,3c.85,1.13,1.81.81,3,.57,1.84-.38,1.79,1.47,2.71,2.39.71.71,1.93.91,2.39,1.86s.07,2.83.05,4a12.56,12.56,0,0,0,.2,4.08c.87,2.57,2.88,4.67,3.72,7.3,1,3,1.24,6.28,2.8,9.08,1.31,2.35,3,4.56,4.46,6.83a33.32,33.32,0,0,0,6,6.41,21.88,21.88,0,0,0,3.85,3,29.38,29.38,0,0,0,4.3,1.75,13.3,13.3,0,0,1,4.2,2.44c1.11,1,2,2.2,3.06,3.18a10.72,10.72,0,0,0,9.52,2.21c3-1,3.14-4.89,4.8-7.14.94-1.29,2.19-2.3,3.2-3.53a12.5,12.5,0,0,0,2.08-4,12.23,12.23,0,0,1,5-6.88,16.45,16.45,0,0,1,7.6-2.66,1.09,1.09,0,0,1,.81-.34c.69.15.87,1.31,1.61,1.57s1.72-.32,2.58-.28a11.58,11.58,0,0,0,2.44.29c.74-.11,1.46-.54,2.18-.15s.95,1,1.67,1.29a3.24,3.24,0,0,0,2.2-.13c.83-.27,1.82-.8,2.7-.52.68.22,1,.9,1.72,1.13s1.5,0,2.18.31a3.77,3.77,0,0,1,1.42,1.48c.94,1.45.87,3.5,2.92,3.73,1.86.2,3.07.57,4.18,2.18a12.68,12.68,0,0,0,2.89,3.43c.57.4,1.23.65,1.59,1.28a18.56,18.56,0,0,1,.59,2.07,4.59,4.59,0,0,0,2,2.08c.77.43,1.75.39,2.41,1s.58,1.86.67,2.83c.11,1.2,1.64.94,1.86,2.33a2.34,2.34,0,0,0,.61,1.37,3,3,0,0,1,.5,1.45,12.43,12.43,0,0,0,.75,3.37c.59,1.61,2.14,2.7,3.1,4.07a8.28,8.28,0,0,1,1.23,3.38,35.43,35.43,0,0,0,1.28,3.65c.43,1.4,1.38,2,2.13,3.15a5.9,5.9,0,0,1,.44,1.59c.26.81,1,1.25,1.55,1.86.95,1,2.41,1.48,3.23,2.68s0,1.94,1.15,2.84c.42.32.87.42,1.19.88a6.68,6.68,0,0,1,.58,1.54c.4,1,1.42,1.68,2,2.68a17.82,17.82,0,0,1,1.21,3.14c.42,1.37.93,1.66,2.08,2.42a10,10,0,0,1,2.83,2.14,21,21,0,0,1,1.84,3,13.83,13.83,0,0,1,1.66,2.94,17,17,0,0,1,.34,3.47c.05.87-.11,1.75,0,2.61a8.75,8.75,0,0,1,.36,1.57c-.05,1.54-1.33,2,.09,3.31.76.69.3,1.47.82,2.24s1.35,1.14,1.85,1.84a5.28,5.28,0,0,1,.56,2.45c.17,1,.93,1.18,1.73,1.72,1.74,1.18,2.15,3.15,2,5.16-.06.78-.39,1.5-.48,2.26a3.74,3.74,0,0,0,.87,2.55c.08-.11.29-.2.37-.35a11.34,11.34,0,0,1,2,.8c.62.4,1.13,1,1.72,1.45s1.38.75,2.05,1.18.93.83,1.46,1.18c1.44,1,3.48,1.48,4.59,2.82.49.6.78,1,1.68.74a14.21,14.21,0,0,0,1.79-.76,6,6,0,0,1,1.9-.88,6.58,6.58,0,0,1,2.5-.06,3.09,3.09,0,0,1,1.75.79c.45.47.63.88,1.27,1.18s.95.32,1.28,1a3.83,3.83,0,0,0,.92,1.56,8.75,8.75,0,0,0,3.49,1,14.29,14.29,0,0,1,1.82,0c.54.13.91.57,1.42.79,2,.85,4.27-1,5.94.92,1.08,1.25,2.22,1.26,3.8,1.64a3.21,3.21,0,0,1,1.56.79c.41.38.9,1,1.51,1.17s.95-.29,1.47-.36,1.07.38,1.52.21a4.23,4.23,0,0,0,1.35-2.15,4.76,4.76,0,0,0-.65-2.28,32,32,0,0,0-2-4.12c-.76-1.25-1.82-1.83-2.7-3-1.29-1.74-.44-2.37.08-4.24a16.13,16.13,0,0,0-.28-10.23c-.47-1.33-4.13-8.54-.12-7.45,1.34,5.37.76,11.06,2.47,16.33.47,1.47,4.09,11.19,5.79,9.84,2.44-1.92-2.92-12.58-3.47-15-2.55-11.25,2.06-21,5.29-31.37-4-.3-3.81,1.83-5.06,5-.81,2-1,4.57-2.36,6.31-.55.72-2.16,4.13-3.35,2.56-.45-.6.05-1.38.3-2a23.39,23.39,0,0,0,1-3.15c.73-2.86,3.21-5.37,2.25-8.41a5,5,0,0,0-1.79-2.85c-1-.64-1.71-.71-1.43-2.11.49-2.53,2.48-3.74,3.79-5.78.66-1,1.11-2.21,2.21-2.89s2.14-.37,1.76,1.1a2.56,2.56,0,0,0,2.59-.82c.41-.45.72-1,1.13-1.43s1.15-.76,1.54-1.21c-1.12,1.31.47,2,.06,3.3a5.79,5.79,0,0,1-2.88,3.13,3.15,3.15,0,0,1-2.16,0A4.24,4.24,0,0,0,845,738c-.08.88.1,1.87.09,2.77s.52,2.09,1.24,1c.47-.75.49-1.57,1.49-1.92,2.32-.79-.43,4.44-.18,4.48,3.63.69,6.14-4.4,9-6,2.12-1.24,9.05-4.66,8.32-7.58a1.44,1.44,0,0,0-2.09,1c-.74-.67-3.23-1.15-3.2-2.7,0-2,3-2.63,4-3.74,1.89-2-.8-1.22-.88-3.75-.05-2,2.09-3.53,2.84-1,2.45.13,2.09-3.43,4.38-3,.15,2.29-.51,4.57,2.42,3.19,1.68-.79,4.27-4,6.28-2.61a10.43,10.43,0,0,1-2.83,3.27c-1.3.87-4.18,1-5,2.42-2,3.33,4.69-.39,5.7-.65,1.49-.38,3.36.28,4.74-.51,1.1-.63,1.6-2.07,2.49-2.95a35.77,35.77,0,0,1,6.27-4.59c2.53-1.5,5.78-2,6.26-5.42-.56.09-1.3-.16-1.87-.09-.19-2.17,3.47-6.62,5.79-6.07-.36,1.17-2.36,4,.09,3.58.91-.16,2.12-2.23,2.69-2.89,1.94-2.26,2.78-3.54.57-5.81-1.11-1.15-1.77-1.3-1.93-3.05-.17-1.91.77-2.27-.83-3.76-1.16-1.09-2.56-.84-2.5-2.94,0-1.16.82-2.58,2.2-2.2,2.5.7,2.21,7.24,4,1.68,3.24-.19,4.2.1,3.18,3.18s-.53,3.36,2.88,3.53a3.51,3.51,0,0,1-1,3.27c2.7.24,4.57-2.67,6.95-3.57,3.15-1.19,6.38-2.3,9.57-3.47a32.41,32.41,0,0,1,5.16-1.4,4,4,0,0,1,.26-.34c.28-.37.65-.75.93-1.12.09-.18.28-.46.37-.65l.56-.56a5.19,5.19,0,0,0,.47-2.9,6.16,6.16,0,0,1,0-1.3c.09-.56.65-.93.93-1.4a4.79,4.79,0,0,0,.56-3c-.09-1.12-1.12-2-1.68-2.89a5.44,5.44,0,0,1-1-2.89c.1-1,1.4-1.68,1.78-2.7s-.28-2.06-.47-3a4.91,4.91,0,0,1,.28-3.26,12.58,12.58,0,0,1,.65-1.68,8.4,8.4,0,0,0,.84-1.59c.37-1,.09-2.05.28-3.08.1-.56.65-.75.94-1.21a2.29,2.29,0,0,0,.09-1.59A10.66,10.66,0,0,0,935.79,651.55Z" transform="translate(-60.42 -53.76)"/></g><g id="TN"><path class="cls-1" d="M1198.41,477.4c-1.13.65-.56,1.36-1.23,2.25-.47.62-2,1.09-2.66,1.48a6,6,0,0,0-2.14,2,10.34,10.34,0,0,1-1.53,2,9.3,9.3,0,0,1-1.05.74l-.52.29-.52.23a3.24,3.24,0,0,1-.34.18l-.18.08-.39.12a1.53,1.53,0,0,1-1.47-.24.76.76,0,0,1-.15-.22,1.55,1.55,0,0,1-.13-.49,2.4,2.4,0,0,1,0-.26c0-.21,0-.42,0-.62s0-.26,0-.37,0-.1,0-.16l.05-.33s0-.09,0-.13,0-.18.05-.27a1.31,1.31,0,0,0,0-.15c0-.14.05-.29.07-.44s0-.1,0-.16a2.72,2.72,0,0,0,0-.28,1.22,1.22,0,0,0-.22-.92.41.41,0,0,0-.12-.09.87.87,0,0,0-.64,0,4.36,4.36,0,0,0-1.73,1.21c-.13.14-.25.28-.36.42l-.17.22a7.49,7.49,0,0,0-.68,1.09c-.14.35-.28.71-.41,1.07a21.71,21.71,0,0,0-1,3.27,5,5,0,0,1-.24.81c-.07.18-.16.36-.25.54s-.2.35-.32.52a4.78,4.78,0,0,1-.59.7,3.5,3.5,0,0,1-1.53.92c-.7.21-1.43.42-2.13.68l-.51.21h0l-.49.23-.47.26a5.21,5.21,0,0,0-.44.3,6.87,6.87,0,0,0-1.65,1.6l-.18.22a7.84,7.84,0,0,1-.51.93l0,0-.16.1-.31.17-.29.16a1.66,1.66,0,0,0-.36.27,3.29,3.29,0,0,1-2.24.7,5.19,5.19,0,0,0-2.1.42l-.31.05-.59.1a9.12,9.12,0,0,1-1.48.13,5.16,5.16,0,0,0-2,1,8.08,8.08,0,0,0-1.82,1.82,16.4,16.4,0,0,0-1.08,1.66l-.33.58a22.13,22.13,0,0,1-2,3.25l-.19.2-.2.19c-1.12,1.12-2.8,1.26-3.36,3.08a1.37,1.37,0,0,0,0,.13.88.88,0,0,0,0,.25c0,.54.23,1,.23,1.72s-.37,1-.73,1.47a2.17,2.17,0,0,0-.25.34,1.33,1.33,0,0,0-.23.45s0,0,0,0a2.44,2.44,0,0,0-.1.54,17.9,17.9,0,0,0,.06,1.8c0,.53,0,1,.06,1.56h0c-9.47,1.3-19.87,2.53-30.59,3.68-20.36,2.18-41.9,4.07-60.6,5.55-25,2-44.84,3.27-50.07,3.59l.28-.34c1-1.22,2.57-1.41,3.65-2.52s.86-2.19.69-3.77a32.13,32.13,0,0,1-.37-4.3c.06-1.85.77-2,1.86-3.21,1.24-1.45.57-3,.84-4.74a7.08,7.08,0,0,1,1.79-3.43c1.88-2.46,3.89-5.51,4.36-8.69a8.84,8.84,0,0,0,.1-1.39,54,54,0,0,1,.19-8.59c.23-1.58.91-2.08,1.63-3.39a4.32,4.32,0,0,0,.29-.69c0-.08.05-.16.08-.26s.09-.33.13-.5c8.07,0,34.63-.94,34.63-.94l.37-7.27c2.75,0,5.67,0,8.74-.11l2.31-.07,2.46-.09,2.33-.1q3.72-.17,7.67-.41l2.43-.16,1.63-.11,2.35-.16q3.59-.26,7.33-.57l2.35-.19,6.35-.57,2.42-.23.43,0,4.14-.4.28,0,2.73-.27c5.84-.6,11.86-1.26,18-2l1.77-.2,3.06-.36,2-.23,1.18-.15,3.9-.47,5.33-.67h0c7.24-.91,30.55-4.18,45.18-6.23l-1,.15Z" transform="translate(-60.42 -53.76)"/></g><g id="SD"><path class="cls-1" d="M866.82,230.28a30.36,30.36,0,0,1-5.78-6.9c-1.16-1.76-1.22-3.53-1.12-5.6.13-2.75,1.71-5.08,2.33-7.57-36.37,1.06-133.41-4.83-153.69-6.1l-2,28-4.18,59.3c15,1.09,97.73,6.94,120.37,5.72a1.36,1.36,0,0,1,.88.13,16.07,16.07,0,0,0,2.38.84,7.17,7.17,0,0,1,2.1,1c.7.42,1,1.26,1.68,1.68a5.36,5.36,0,0,0,2.1.7c.7.14,1.4.28,2.24.42,1.4.14,2.94-.14,4.34-.14s2.94-.14,4.48-.14c.56,0,1.26.14,2,.14a4.16,4.16,0,0,1,2.1.7,12.47,12.47,0,0,0,4.34,1.12,12,12,0,0,0,2.24,0,2.59,2.59,0,0,1,2.1,1.26,5.78,5.78,0,0,0,2.38,2.1,18.62,18.62,0,0,0,2.52,1c.84.28,1.68.28,2.52.56h.12c0-.24-.07-.47-.12-.71a8.79,8.79,0,0,1-.56-4.2,11,11,0,0,0,.42-2.1v-2.1a7,7,0,0,0-.7-2.24,4.63,4.63,0,0,1,.14-2,5.78,5.78,0,0,1,.56-2.24,2.51,2.51,0,0,0,.56-2c-.14-.84-.84-1.26-1.26-1.82a2.76,2.76,0,0,1-.42-2.1c.14-.84.84-1.12.7-2a16.38,16.38,0,0,0-.26-1.68l5,0Z" transform="translate(-60.42 -53.76)"/></g><g id="SC"><path class="cls-1" d="M1291.86,529.74c-2,2-3.85,3.71-5.06,6.38s-2.17,5.2-3.39,7.82c-1.31,2.81-2.16,7.6-5.44,8.89a10.81,10.81,0,0,0-1.17-2.47c-3.16,1.46-.39,6.16,0,8.33-3.18.17-5-.85-6,2.94-.69,2.6-1.15,5.32-4.3,6.59-.76-1.11-1.81-2.38-3.36-2-2.18.58-1,1.57-.94,3.09,0,2.31-3,4.49-5.73,4.46a8,8,0,0,1-.32-1.83c-.4,1.33-.68,3.46-1.76,4.35-1.29,1.06-3.36-.09-4.08,1.69s2.35,2.65,1.18,4.37-3.8-.29-4.07-1.79c-2.13,1.5,2,3.82,1.4,5.81-1.33.44-.74,2-1.06,3.14a7.82,7.82,0,0,1-1.77,3,21.6,21.6,0,0,0-2.71-2.36,2.79,2.79,0,0,1-1.4-1.12,8.63,8.63,0,0,0-3.92-2.52c-1.68-.56-1.12-1.68-1.4-3.08a5.19,5.19,0,0,0-.56-2c-.56-.56-1.4-.84-2-1.4a4.51,4.51,0,0,0-1.12-2c-.28-.84-1.12-.84-1.68-1.4-.84-.84-.84-2.24-1.4-3.36-.28-.56-.84-1.12-.84-1.68-.28-.84-.28-1.68-.56-2.24-.56-1.12-1.12-3.08-2-3.64a18.91,18.91,0,0,1-3.92-2.52,14.07,14.07,0,0,0-3.36-2.23c-4.11-1.65-5.12-4.65-8.33-7.07-1.83-1.37-3.48-2.73-5.32-3.93-1.59-1-2.62-2.82-4.27-3.85-3.29-2-3.47-1.28-4.63-5-.88-2.83-3.29-3.56-4.6-6.18-.56-1.12-1.68-3.08-2.8-3.64-.84-.28-1.12.28-2-.56a5.71,5.71,0,0,0-1.68-2c-1.4-.56-2.52,0-3.92-.28-2.24-.56-2.8-3.36-3.36-5-.56-1.4-.28-2.24.56-3.64.28-.84.28-1.4.56-2.52a11.12,11.12,0,0,1,2.07-3.49,9.78,9.78,0,0,1,1.29-1.27,8.69,8.69,0,0,1,3.64-1.68,4.16,4.16,0,0,0,2-.28c.56,0,1.12-.56,1.68-.84,1.4-.56,2.52.28,3.92-.56,1.12-.56,2-2,3.36-2.24a18.52,18.52,0,0,1,3.92-.28,5.32,5.32,0,0,0,3.64-1.4l21.28-1.4c.56,1.12.28,2.8,1.4,3.08.84,0,1.68-.28,2.52-.28l4.48,5.88,25.76-4.2v-.56Z" transform="translate(-60.42 -53.76)"/></g><g id="RI"><path class="cls-1" d="M1399.43,256.78c-.92-.08-4.95.68-10.34,1.82l5.88,22.69c.52.36,1,.44,1.26-.45.18-.72-.83-1-1.06-1.49a3.65,3.65,0,0,1-.06-1.54,12.33,12.33,0,0,0,2.12-1.14,6.29,6.29,0,0,1,1.66-1c.75-.25,1.71,0,2.41-.3,1.69-.73-.43-3.11-.42-4.56,0-1.69,2.1-3.79,3.71-2.36,1,.89,1,3.58,2.88,3.33,1.13-.15,1.46-1.29,1.62-2.48A28.14,28.14,0,0,1,1399.43,256.78Z" transform="translate(-60.42 -53.76)"/></g><g id="PA"><path class="cls-1" d="M1335.28,332.66c-.22.52-.73.75-.94,1.27s0,1.08-.18,1.53c-.4.9-1.48,1.42-2.21,2.08a14.6,14.6,0,0,0-1.68,2,20.14,20.14,0,0,1-2.13,2c-.36.34-.73.64-1,1a4.2,4.2,0,0,0-.75-.27,10,10,0,0,0-2.94-.56,3.56,3.56,0,0,0-2.66.28,27.77,27.77,0,0,1-2.94,1.54c-.56.14-1.12.28-1.26.84s-.14.84-.28,1.26a4.34,4.34,0,0,1-1.26,1,4.72,4.72,0,0,0-.82,1.17l-76.12,13.72-20.63,3.72-4.57-27.2-7.23-43c1.22-.38,2.51-.5,3.8-.88,2-.58,2.44-2.17,3.57-3.7a16.21,16.21,0,0,1,3.49-3.09,8.2,8.2,0,0,1,3-1.2l1.6,11.91s73-15.37,91.31-20.15a2.58,2.58,0,0,0,.67.13c.56.14,1.54,0,2.1.42a17,17,0,0,1,2,1.4,7.88,7.88,0,0,0,2,.56c1.12.14,2.1.42,2.1,1.68a10,10,0,0,0,.42,4.06,5.26,5.26,0,0,0,1.4,1.68c.28.42.14.56.7.7.28.14.7,0,1,0a3,3,0,0,1,2.1.56c.7.42.84,1.4,1.68,1.82,1.12.42,3.22.28,3.78,1.54.24.58.28,1.17.53,1.67a10,10,0,0,0-2.11,3.36c-.26,1,.07,2-.52,2.81-.46.66-1.06.76-1.4,1.67a8.37,8.37,0,0,1-1.4,2.91c-1,1.18-1,1.33-.7,2.83a22.87,22.87,0,0,1,.45,7,5.28,5.28,0,0,0,.63,3.08c.58.92,1.53,1,2.24,1.83,1.26,1.43,1,4.09,3.51,4.22,1.09,1.75.6,4.18,1.39,5.88C1335.33,330.61,1335.78,331.47,1335.28,332.66Z" transform="translate(-60.42 -53.76)"/></g><g id="OR"><path class="cls-1" d="M452.45,175.21c-.75-.56-1.68-.75-2.24-1.49-.38-.74,0-1.5-.19-2.05-.3-1.66-1.71-5-3.53-6.25v.17l-39.76-8c-1.59-1.83-5.58.76-7.47.93a15.73,15.73,0,0,1-4.29-.74,13,13,0,0,1-2.39-.42c-.47-.22-.74-1-1.2-1.24s-1.36,0-2-.26c-.91-.34-1.14-1.1-2.21-1a43.83,43.83,0,0,0-4.33,1.26c-1.19.26-1,.32-1.92.9-.69.4-1,.92-1.81,1s-1.28-.71-1.72-.71c-.74,0-1.13.62-1.82.72-1.66.25-2.94-.9-4.49-1.14a31.64,31.64,0,0,0-4.71,0,3,3,0,0,1-1.82,0,29.81,29.81,0,0,0-3.54-1.11c-2-.26-2.11-1-3.74-1.92-1.41-.81-2.71-.32-4.29-.32-1.74,0-2.73-.73-4.29-1.08s-2.93.27-4.29.15a14.33,14.33,0,0,0-2.25-.39c-1.72.06-3.14,1-4.66-.55-.93-.93-1.31-1.49-2.61-1.49a12.5,12.5,0,0,1-2.62-.18c-.75-.37-.94-.37-.94-1.12,0-.56.19-.93.19-1.31a5.61,5.61,0,0,0-.37-1.87c-.38-1.12-1.31-1.68-1.5-2.8a2.78,2.78,0,0,1,.75-2.61c.93-1.12,1.3-1.3.75-2.8-.38-.93-1.31-1.3-1.31-2.24,0-.74.56-1.12.75-1.87a2.46,2.46,0,0,0-.56-2.24c-.56-.93-1.68-2.42-2.8-1.68-.75.56-.93,2.61-2.05,2.24-.37,0-.93-.74-1.3-.93l-1.12-.56c-.56-.19-.74-.56-1.12-.93a4.53,4.53,0,0,0-.93-.38,5,5,0,0,0-2-.73,3.7,3.7,0,0,1,1.36,1.36,47.77,47.77,0,0,1-4.9,0c-1.58,0-2.59-1-4-1.11-1.82-.18-1.75,1.65-2.3,3s-1.7,2-2.31,3.28c-1.41,2.88-1.46,7.09-1.91,10.25s-2,5.39-3.11,8.35c-1.2,3.18-1.75,6.66-3.25,9.72-1.28,2.62-2.8,5-3.56,7.83s-.87,6.15-2.59,8.66c-2,2.89-2.66,5.38-3.55,8.78-.74,2.87-2.39,5.22-3.7,7.84-1.12,2.23-2.9,4.06-3.86,6.35a30,30,0,0,1-3.23,6.46,62.51,62.51,0,0,0-3.72,6c-1.17,2-3.35,3.64-4.09,5.78-.84,2.41,0,5.59-.22,8.13-.21,3-1.09,6-.71,8.91.31,2.36,1.14,4.62,1.46,7,0,.3.07.59.08.88,13,4.19,44.76,14,88.31,24.5,19.21,4.65,40.73,9.45,64,14l11.81-58.54a4.94,4.94,0,0,1,.37-1.31c.56-.93.18-1.3,0-2.24,0-.74.18-1.5.18-2.24,0-.56.19-1.12.19-1.5a7,7,0,0,0,.74-2.61,7.85,7.85,0,0,0-.37-2.24,3.69,3.69,0,0,1,.56-4.48c-.37-.56-.18-2.05-.18-2.8.18-.75.56-.93.93-1.5a4.54,4.54,0,0,0,1.12-1.49,10.29,10.29,0,0,1,1.49-1.12c.37-.37.93-.37,1.31-.75.56-.37.56-.56.56-1.12,0-1.5-.19-2.8.93-3.92a22.24,22.24,0,0,1,3-3v-.19c1.49-.75,1.49-2.42,1.68-3.92.19-1.3,1.12-2.24,1.87-3.36.56-.74.74-1.49,1.68-1.86s1.68-.56,2.05-1.3a1.43,1.43,0,0,0,.19-.75,9.91,9.91,0,0,0,.56-2.24,9.35,9.35,0,0,0-.38-2C453.2,176.52,453.2,175.78,452.45,175.21Z" transform="translate(-60.42 -53.76)"/></g><g id="OK"><path class="cls-1" d="M908.24,476.58c-10,.12-80.73.75-172.73-4q-11-.58-22.41-1.25L712.19,487l69,2.55L779.4,545c.14.19,0,.44.25.62a1.09,1.09,0,0,0,.56.09,3.79,3.79,0,0,1,3.36,2.24c.41,1,.84.81,1.5,1.5s.3,1.42,1.3,1.89,1.4,0,2.33-.12c1.78-.27,2.47,1.35,4.11,1.49,2,.18,3.62-1,5.51.21,1.63,1.08,2.23,3.37,3.05,5a2.09,2.09,0,0,0,1.92,1.27c1,.1,1.81.3,2.77.48a18.58,18.58,0,0,1,2.33.3c1.52.45,3.19-.39,4.47.47.66,0,1-.38,1.69-.17s.88.77,1.3,1.19c.7.69,2.21,1.73,3.2,1.29.75.32,1.56-.19,2.41.18s1.14.77,2,.42,1.09-.92,2-.52,1.32,1.75,1.91,2.45c.94,1.1,1.7,3.73,3.1,4.23s3.27-1.56,4.22-2.44c1.81-1.66,2.21-.39,3.43.93a16.57,16.57,0,0,1,1.58,1.77c.86,1.19,2.92,1.07,4.23.77,1.58-.38,2.39-2,4-2.33.75-.14,1.3.26,2.05.44a7,7,0,0,0,2.61,0c1.3-.13,1.17,1,2.34,1.07.91,0,1.74-.67,2.6-.87,1.66-.4,3.33-.55,4.76.39,1.72,1.14,2.75,1.09,4.74.81a27.65,27.65,0,0,1,5.44-.36,24.89,24.89,0,0,0,5.32-.54c2.71-.49,5.57-1.17,8.31-1.42,1.7-.16,2.55,1.61,4.19,1.24,1-.23,1.47-1.09,2.43-1.4a5.4,5.4,0,0,1,2.52-.12,13.14,13.14,0,0,1,3.89,1.52c.6.36,1.29,1.15,2,1.28s1.33-.38,2.14-.18c1.46.36,1.88,2.21,3.54,2.22a3.8,3.8,0,0,1,2.43.36,7.77,7.77,0,0,1,1.89,1.78c.23.26.51.53.76.8l-3-83Z" transform="translate(-60.42 -53.76)"/></g><g id="OH"><path class="cls-1" d="M1203.57,295.94c-1.38,1.07-2.36,2.62-3.64,3.81s-3,2-4.34,3.27-1.61,2.87-3,3.75c-1.67,1.06-3.56,1.08-4.7,2.95s-1.2,4.2-3,5.86a6.15,6.15,0,0,1-5.27,1.49c-1.7-.18-3.85-.63-5.48.09s-2.09,2.82-3.67,3.61-3.45-.38-5.06-.34-3.14.11-4.73.09c-.9,0-4.66,1.51-5.2.86-1-1.18,3.48-2.87,4.12-3.1-1.88.14-6.15.78-6.86-1.54-2.08.69-2.94-.33-4.83-.87-1.26-.36-3.12,0-3.88-1.09-7.1,1.33-25.18,3.47-28,3.8l11.81,82.14a7.78,7.78,0,0,1,2.83-.86c1.36,0,1.48.85,2.59,1.07s2.46-.24,3.57.06c1.87.49,3.77,2.15,5.61,3.07a32.91,32.91,0,0,0,6.16,2.6c2.41.63,4-.06,6.45-.09,4.41-.05,7.77-1.42,12,.08,3.45,1.22,5.42,2.08,6.63,4.37a3.59,3.59,0,0,1,.17.35c1.32-.36,4.34.08,5.24-.59,1.12-.84.56-2.52,1.68-3.36.84-.28,1.12,0,2-.84a2.37,2.37,0,0,0,.84-1.4c.28-1.4-1.4-2.52-1.68-3.64-.56-1.68,0-2.24.56-3.64.84-1.68.28-4.48,1.68-5.6,1.4-1.4,2,.28,3.08.84a4.62,4.62,0,0,0,2.8-.28c.84-.84.56-1.4.56-2.24,0-1.4-.28-3.08.28-4.2a11.14,11.14,0,0,1,3.36-2.8c1.12-1.4,3.36-1.68,4.76-2.8a12.87,12.87,0,0,0,2-2c.28-.84,1.4-1.68,1.68-2.52s.28-2.24,1.12-2.8c0-.56.28-.56.56-1.12a5.5,5.5,0,0,1,2.52-2.52,9.78,9.78,0,0,0,2.24-1.4,7.71,7.71,0,0,0,.28-2.52c0-1.68-.84-3.08-.84-4.76a16.45,16.45,0,0,1,.56-5.32,49.07,49.07,0,0,0,1.68-4.76,9.41,9.41,0,0,0-.63-6.59c-.23-.52-.49-1-.77-1.54.56-.84.28-2.24.56-3.08.56-.84,2-1.12,2.24-2a1.37,1.37,0,0,0,.75,0l-7.23-43A6.45,6.45,0,0,0,1203.57,295.94Z" transform="translate(-60.42 -53.76)"/></g><g id="ND"><path class="cls-1" d="M859.54,201a10.58,10.58,0,0,1-.75-2.24,2.65,2.65,0,0,1-.19-2.06,10.63,10.63,0,0,0-.19-2.42c-.18-.93-.94-1.5-1.3-2.43a9.07,9.07,0,0,1,0-4.48c.18-.93.74-1.49.74-2.43,0-.74-.38-1.3-.38-2.06-.18-1.3.38-2.42.19-3.73-.56-1.87-1.68-3.36-.94-5.6.37-.75.56-1.68.94-2.61a9.44,9.44,0,0,0,.74-2.43,6.14,6.14,0,0,0-.74-2.62,4.84,4.84,0,0,0-.75-1.3c-.37-.37-.37-.75-.75-1.12a10.34,10.34,0,0,1-1.68-2.24c-.18-.94.19-1.87-.18-2.62-.37-.94-1.5-1.68-1.87-2.61a14.91,14.91,0,0,1-.37-2.61,21.29,21.29,0,0,1-.19-6,22.58,22.58,0,0,0,.19-5,5.72,5.72,0,0,0-.75-1.87c0-.19-.18-.19-.37-.37a4.4,4.4,0,0,0-.56-.94c-.19-.56-.56-3,0-3.36,0-1.12.18-2,.18-3,.56-.74.56-2.24.94-3.17a3.28,3.28,0,0,0-.37-2.61c-.37-.75-.56-1.68-.93-2.43-.19-.56-.56-1.12-.74-1.68v-1.49a7.76,7.76,0,0,0-.64-2.7c-46.68,0-91.55-1.76-133.92-4.75l-6.35,90.09c20.28,1.27,117.32,7.16,153.69,6.1a6.54,6.54,0,0,0-.46-4.75Z" transform="translate(-60.42 -53.76)"/></g><g id="NC"><path class="cls-1" d="M1345.58,463.35c0,2.88-.18,3.35-2.26,5-2.59,2.09-2.65,8.28-7.13,8,.08-.56.15-2.71-1-2.18-.77.35-.42,2.06-.46,2.74-1.8.13-1-2.8-2.88-2.77s-.91,2-2.16,2.81c.9,1,2.36,2.56,2,4-.33,1.2-3.5,2.58-1.28,4,1.26.81,5.21-1.15,6.81-1.18,2.93-.06,5.26.62,5.09,4.08-.15,3.14-3,6.51-4.65,9.06-1.84,2.92-3.89,3.17-7.14,3.68-2.18.34-5.49,1.57-7.68.95l-.2-.06c-1.33.85-3.12,1.43-4.16,2.21a34.21,34.21,0,0,0-4.84,3.78c-3.35,3.59-4.64,8.46-6.75,12.76a55.72,55.72,0,0,1-4,6.24c-.21-2.25.41-4.45.17-6.66-1.74.34-1.34,2-1.91,3.19a5.14,5.14,0,0,1-2.92,2.71c-2.78,1.31-4.2,1.78-6.37,4v0l-31.58-21.83v.56l-25.76,4.2-4.48-5.88c-.84,0-1.68.28-2.52.28-1.12-.28-.84-2-1.4-3.08l-21.28,1.4a5.31,5.31,0,0,1-3.64,1.4,18.32,18.32,0,0,0-3.92.28c-1.4.28-2.24,1.68-3.36,2.24-1.4.84-2.52,0-3.92.56-.56.28-1.12.84-1.68.84a4.17,4.17,0,0,1-2,.28,8.68,8.68,0,0,0-3.64,1.68,9.9,9.9,0,0,0-1.3,1.27c-7.76,1.77-18,3.46-29.58,5,0-.52-.06-1-.06-1.56a17.9,17.9,0,0,1-.06-1.8,2.75,2.75,0,0,1,.1-.54h0a1.45,1.45,0,0,1,.24-.45,2.83,2.83,0,0,1,.24-.34c.36-.44.73-.68.73-1.47s-.28-1.18-.23-1.72a1.45,1.45,0,0,1,0-.25,1.37,1.37,0,0,1,0-.13c.56-1.82,2.24-2,3.36-3.08l.2-.19.19-.2a22.13,22.13,0,0,0,2-3.25l.33-.58a16.4,16.4,0,0,1,1.08-1.66,8.08,8.08,0,0,1,1.82-1.82,5.16,5.16,0,0,1,2-1,9.12,9.12,0,0,0,1.48-.13l.59-.1.31,0h0a5.19,5.19,0,0,1,2.1-.42,3.29,3.29,0,0,0,2.24-.7,1.66,1.66,0,0,1,.36-.27l.29-.16.31-.17.16-.1,0,0c.24-.26.26-.53.52-.93l.17-.22a6.87,6.87,0,0,1,1.65-1.6,5.21,5.21,0,0,1,.44-.3l.47-.26.49-.23h0l.51-.21c.7-.26,1.44-.47,2.13-.68a3.5,3.5,0,0,0,1.53-.92,4.78,4.78,0,0,0,.59-.7q.17-.26.32-.52a5.13,5.13,0,0,0,.25-.54,5,5,0,0,0,.24-.81,21.71,21.71,0,0,1,1-3.27c.14-.36.28-.72.42-1.07a7.51,7.51,0,0,1,.67-1.09l.17-.22c.12-.15.24-.29.36-.42a4.36,4.36,0,0,1,1.73-1.21.87.87,0,0,1,.64,0l.12.09a1.22,1.22,0,0,1,.22.92,2.72,2.72,0,0,1,0,.28c0,.05,0,.11,0,.16s0,.29-.07.44a1.31,1.31,0,0,1,0,.15c0,.09,0,.18-.05.27s0,.09,0,.13l-.05.33c0,.06,0,.12,0,.16s0,.24,0,.37,0,.41,0,.62a2.4,2.4,0,0,0,0,.26,1.55,1.55,0,0,0,.13.49.76.76,0,0,0,.15.22,1.53,1.53,0,0,0,1.47.24l.39-.12.18-.08a3.24,3.24,0,0,0,.34-.18l.52-.23.52-.29a9.3,9.3,0,0,0,1.05-.74,10.34,10.34,0,0,0,1.53-2,6,6,0,0,1,2.14-2c.7-.4,2.19-.86,2.66-1.48.67-.89.09-1.6,1.23-2.25l-2-13.27,1-.15h.1l12.22-1.72,13.18-2.07,1.72-.26c10.19-1.56,20.15-3.13,29.68-4.67l1.06-.17h.08c12.52-2,24.28-4,34.84-5.76l.52-.09,45.56-8,.11,0,.32-.06.14,0h0c0,.36,0,.72,0,1.07l.46.09c-.23,2.23-.18,4.23,2.24,5.25a12.49,12.49,0,0,0,.37-3.57c1.84-.17,1.51,3,1.91,4.16s1.26,1.9,1.66,3c-1.72.29-5.66-2.81-6.18-.56-.19.84-2.7-2-2.81-2-1.91,0-1.59,4-1.67,5.06-1.81.92-2.23-.22-3.43-1.08a12.08,12.08,0,0,0-3.72-1.62c-1.55,2.44,5.95,4.81-.13,5.77-1.43.23-3.18.54-4.14-.51-1.16-1.27-.13-3.19-2.46-3.59a2.08,2.08,0,0,0,.17,2.44c-.25,0-.51.06-.77.09.23,1.5-1.57,4-1,5.16,1.25,2.36,3.94-1,5.18-1.45,1.94-.74,4.06.21,6.13-.22a34.8,34.8,0,0,0,5.77-1.44c2.73-1.11,8.16-2.5,10.06.52C1345.72,459.36,1345.57,461.55,1345.58,463.35Z" transform="translate(-60.42 -53.76)"/></g><g id="NY"><path class="cls-1" d="M1385.15,291.23c-1.76.39-2.4,1.26-3.55,2.65-1,1.18-2.36,2.47-4,2.22-.07-1.68,2.41-3.36,3.49-4.47s3.89-3.2,3.47-5.15c-1.12-.59-2.28,1.39-2.92,2.08a14.89,14.89,0,0,1-3.17,2.37,15.58,15.58,0,0,1-2.7,1.77,29.63,29.63,0,0,1-3,.75c-1.3.34-2.15.27-3.29,1.16-.9.71-1.68,1.56-2.55,2.28-2,1.65-3.91.11-5.87,1.11-2.24,1.15-1.81,4.61-5,3.53.13-1.27,1.15-2.48,1.53-3.72a3.2,3.2,0,0,1,.55-1.15l-6.85-29.12c.06.06.12-.08.16-.31s.12-.89.15-1.23c.07-.67.07-1.4.11-2.1.1-1.53.56-2.88.56-4.48,0-3.89.36-7.49-.28-11.34,0,0,0,0,0,0h0a11.37,11.37,0,0,1-.42-2.19,10.8,10.8,0,0,0-.14-2.1c-.14-1.54.14-3.08-.14-4.62a25.36,25.36,0,0,0-1.26-4.34,10.47,10.47,0,0,1-.7-2.24c-.14-.28,0-.7-.14-1.12a4.94,4.94,0,0,0-.7-1.12c-.56-1.4-1.4-2.66-1.82-4.06s-1.68-2.66-2.52-4.06a5.06,5.06,0,0,1-.42-2.52v-2.24a15.18,15.18,0,0,1,0-2.52,6.66,6.66,0,0,0-.14-2.38c-.7-2.8-1.82-5.74-.84-8.68a9.3,9.3,0,0,0,.42-2.1,3.84,3.84,0,0,1,.28-1.82c.14-.42.42-.7.56-1.12s.14-.7.14-1.12a4,4,0,0,0-.56-1.82,19.72,19.72,0,0,1-1.26-2.38,4.7,4.7,0,0,1-.14-2,7.18,7.18,0,0,0-.84-3.08,14.47,14.47,0,0,1-.56-4.2c-.13-1.18-.26-2.48-.51-3.67l-12.35,2.79q-7.21,1.64-14.43,3.21l-5.9,1.32c-.6.57-1.36.91-1.93,1.54s-1.13,1.64-1.84,2.37c-2.49,2.55-5.41,4.79-7.71,7.59-1.28,1.57-2.55,3.16-3.86,4.71-1.09,1.29-2.32,2.32-2.72,3.89a6,6,0,0,0,.08,2.31c.11,2.49-1.29,4.15-3.26,5.51a22.33,22.33,0,0,0-4,3.55c-.9,1-4.84,2.67-4.42,4.31s3.53-.08,4.27-.73c1.41-1.24,1.68-2.68,3.91-2.26a8.94,8.94,0,0,1-.1,1.94c-.54,2.71-3.09,3.66-2.11,6.72.93,2.9,2.06,4.78-.94,6.75-2.27,1.49-4.47,2.54-5.86,5s-1.87,4.67-5.09,4.39a12,12,0,0,0-3.8-.15,12.84,12.84,0,0,0-3.36,1.68c-2.35,1.32-5.12,2.43-7.84,1.7s-4.54-1.92-7.48-.74a8.67,8.67,0,0,1-3.59.88c-1.23,0-2.41-.46-3.65-.42-2.46.08-5.12,1.53-7.45,2.3a18.1,18.1,0,0,0-6.06,3.8c1.25.83,1.51,1.94,2.34,3.08s2,1.34,2.73,2.48c1.37,2.24,1.06,5,.63,7.4a10.45,10.45,0,0,1-3.44,6.34c-1.35,1.32-2.44,2.8-3.69,4.2s-2.83,2.19-3.76,3.64-1,3.07-2.63,3.81a10.91,10.91,0,0,1-1.53.52l1.6,11.91s73-15.37,91.31-20.15a2.58,2.58,0,0,0,.67.13c.56.14,1.54,0,2.1.42a17,17,0,0,1,2,1.4,7.88,7.88,0,0,0,2,.56c1.12.14,2.1.42,2.1,1.68a10,10,0,0,0,.42,4.06,5.26,5.26,0,0,0,1.4,1.68c.28.42.14.56.7.7.28.14.7,0,1,0a3,3,0,0,1,2.1.56c.7.42.84,1.4,1.68,1.82,1.12.42,3.22.28,3.78,1.54.24.58.28,1.17.53,1.67a1.66,1.66,0,0,0,.17.29c.42.56.56.56,1.26.56a10.92,10.92,0,0,1,3.64.56c.56.14,1.26.28,1.82.42a8.13,8.13,0,0,0,2,.84,32.26,32.26,0,0,1,3.92,1.26c2.19.73,4.21.77,5.28,3.22.73,1.67,1.46,2.78.91,4.51a4.16,4.16,0,0,0-.43,2.63c.23.73.95,1.2,1.13,2,.26,1-.43,1.7-.45,2.65a5.31,5.31,0,0,1,.81.55c.11-1.24.11-4.15,2.1-3.88.21.71.11,2.63,1.18,2s.18-1.95.73-2.64,1.52-.49,2.16-.73c.86-.32,1.58-1,2.41-1.33a19.5,19.5,0,0,0,2.41-1,21.79,21.79,0,0,1,3.93-2.43,13.7,13.7,0,0,0,3.44-2.2c2.26-1.63,5.17-.91,7.44-2.34a15.4,15.4,0,0,1,3.44-1.82,9.22,9.22,0,0,0,3.86-2c1.37-1.36,2-3.27,3.34-4.65s3.41-2.24,4.14-4.36a6.57,6.57,0,0,0-4.45,2.08C1387.76,289.45,1386.8,290.87,1385.15,291.23Z" transform="translate(-60.42 -53.76)"/></g><g id="NM"><path class="cls-1" d="M713.1,471.28,712.19,487,704.74,616.9l-90.64-5.39,0,.14a3.13,3.13,0,0,0,.28.61s0,.14,0,.18.09.18.14.24a1,1,0,0,0,.24.37c.14.09.32.14.47.23a2.84,2.84,0,0,1,.42.33c.28.19.75.37.65.79a2.38,2.38,0,0,0-.08.27l-43-4.52v.09l-.84,14.56v.1l-19.56-2.39L573.45,459C621.3,464.75,669.14,468.64,713.1,471.28Z" transform="translate(-60.42 -53.76)"/></g><g id="NJ"><path class="cls-1" d="M1352.6,330.9a29.83,29.83,0,0,1,.56,6.51c0,2.33-.84,3.58-2,5.5-1.27,2.21-1.17,4.6-1.3,7.05a10.11,10.11,0,0,1-2.15,5.68,12.45,12.45,0,0,0-2.26,5.09c-.22,1-1.13,5.3-2.7,3.42-1.23-1.48,1.3-11.79-2.79-8.58-.62.49-1.44,1.75-2.32,1.76s-1.28-.94-1.76-1.51c-1.45-1.68-3.13-1-4.8-2.07-.5-.32-1.45-1.75-2.37-2.56,0,0,0-.05,0-.08-.42-1-1.12-1.26-1.12-2.24v-1.54c0-1.06-1.38-1.84-1.36-3.1a2.62,2.62,0,0,1,.85-1.81c.31-.33.68-.64,1-1a20.14,20.14,0,0,0,2.13-2,14.6,14.6,0,0,1,1.68-2c.73-.66,1.81-1.18,2.21-2.08.2-.45,0-1.06.18-1.53s.72-.74.94-1.27c.5-1.19.06-2-.42-3.05-.79-1.7-.31-4.14-1.39-5.88-2.51-.14-2.25-2.79-3.51-4.22-.71-.81-1.66-.91-2.24-1.83a5.28,5.28,0,0,1-.63-3.08,22.87,22.87,0,0,0-.45-7c-.28-1.5-.29-1.66.7-2.83a8.37,8.37,0,0,0,1.4-2.91c.34-.91.95-1,1.4-1.67.6-.85.27-1.79.52-2.81a10,10,0,0,1,2.11-3.36,1.66,1.66,0,0,0,.17.29c.42.56.56.56,1.26.56a10.92,10.92,0,0,1,3.64.56c.56.14,1.26.28,1.82.42a8.13,8.13,0,0,0,2,.84,32.26,32.26,0,0,1,3.92,1.26c2.19.73,4.21.77,5.28,3.22.73,1.67,1.46,2.78.91,4.51a4.16,4.16,0,0,0-.43,2.63c.23.73.95,1.2,1.13,2,.26,1-.43,1.7-.45,2.65-1.36-.74-2.26-.19-3.08,1.58-1.09,2.4-.23,3.11,1.84,4.28,2.46,1.4,3.11,2.82,2.06,5.45C1351.82,326.66,1352,328.39,1352.6,330.9Z" transform="translate(-60.42 -53.76)"/></g><g id="NH"><path class="cls-1" d="M1398.4,215.72c-.37-.93-.37-2.8-1.3-3.54-.74-.56-1.87-.75-2.62-1.5-.37-.56-.74-1.12-.93-1.5a5.16,5.16,0,0,1-.19-1.68c0-.56-.37-.93-.56-1.49s-.4-1.11-.63-1.7l-11.59-41.68c-.61.44-1.12,1.2-2.05,1.11-.65-.05-.74-.5-1.39-.13-.44.25-.46,1-1,1.3-1.1.59-1.68-.44-2.21,1-.58,1.64,0,3.53-.68,5.13a5.79,5.79,0,0,1-2.82,2.68,3.77,3.77,0,0,0,0,1.12c.28,1,1.12,1.54,1.4,2.52a1.94,1.94,0,0,1,0,1.54,6.63,6.63,0,0,0-.7,1.4,3.87,3.87,0,0,0,0,2.8,7.6,7.6,0,0,1,.42,1.4v1.54c0,3.19-2,6.1-3.93,8.54-.68.87-1.9,1-2.49,1.93-.73,1.22,0,2.67.26,3.95.24,1.06.76,2,1,3.08.45,2.07-.6,4.37-1,6.3-.27,1.26.53,1.92.74,3.08a11.67,11.67,0,0,1-.42,3.79c-.2,1-.92,2.06-.56,3.07s1.44,1.31,1.41,2.66c0,1-.83,2-.82,3.08,0,1.3.9,2.3,1.09,3.64.37,2.49-1.4,4.28-.84,6.71.5,2.18,2.23,4.16,2.52,6.31a13,13,0,0,1,0,2.33c9.18-2,19.25-4.34,23.15-5.69a3.64,3.64,0,0,0,2.58-1.55c1.12-1.26,2.52-2.52,3.78-3.78a40,40,0,0,1,3.36-3.64c.86-.54,2.29-1.72,3.41-2.56h0c.16-.66.35-1.32.48-2a30.84,30.84,0,0,0,.18-4.69c0-.08,0-.15,0-.23h0c-1.28-1-3.42-.78-4.47-1.68S1398.59,217.21,1398.4,215.72Z" transform="translate(-60.42 -53.76)"/></g><g id="NV"><path class="cls-1" d="M422.91,284c-23.22-4.53-44.74-9.34-64-14l-19.52,78.63-2.52,7.7L438,497.36a3.8,3.8,0,0,0,0-1.23,10.59,10.59,0,0,1-.45-1.93c0-.78.39-1.34.42-1.95,0-.82-.47-1.28-.42-2s.6-1,.94-1.58a5.33,5.33,0,0,0,.43-4.27c-2.34-.89.75-4.88.87-6,.14-1.42-.55-2.31.17-3.64a19.23,19.23,0,0,0,1.68-2.51c.85-2.44-1.49-5.21-.46-7.43.55-1.19,1.9-.91,2.8-.42a6.17,6.17,0,0,0,3.62,1.12c1.73.08,1.67.7,2.65,1.85,1.29,1.52,1.18.64,2.17-.32s2-.31,2.91-.83c.73-.41.68-1,.6-1.61,0,.05,0,.11,0,.17,0-.22,0-.45,0-.68,0,.17,0,.34.06.51a6.59,6.59,0,0,0,.24-1.43v2.06l4-23.9L485,294.63C463.33,291.43,442.51,287.79,422.91,284Zm33,180.09a1.75,1.75,0,0,1,0-.39C455.9,463.79,455.89,463.93,455.89,464.06Z" transform="translate(-60.42 -53.76)"/></g><g id="NE"><path class="cls-1" d="M888.78,382.49c-1.42-2.06-4.31-3-5.24-5.32s-1.29-5.28-1.86-7.82l-.07-.3a7.74,7.74,0,0,0-2.85-4.78c-2.4-2-1.09-2.78-1.35-5.44a14,14,0,0,0-.84-2.8c-.65-2.14.73-4.25-.59-6.31-.61-.95-1.71-1.64-1.93-2.8s.18-2.33.14-3.5c-.11-2.74-1.42-3.14-3.35-4.75.7-1.42.39-3.62.29-5.19a4.41,4.41,0,0,0-2.25-4.08c-.3-1,.12-1.94,0-2.92-.17-1.19-.53-.92-1.26-1.67-1.43-1.48.34-2.47,0-4.23s-1.89-2.4-2.26-3.89a29.54,29.54,0,0,1-.54-3.93,7.05,7.05,0,0,0-1.15-2.93,3.54,3.54,0,0,1-.44-1.39h-.12c-.84-.28-1.68-.28-2.52-.56a18.62,18.62,0,0,1-2.52-1,5.78,5.78,0,0,1-2.38-2.1,2.59,2.59,0,0,0-2.1-1.26,12,12,0,0,1-2.24,0,12.47,12.47,0,0,1-4.34-1.12,4.16,4.16,0,0,0-2.1-.7c-.7,0-1.4-.14-2-.14-1.54,0-3.08.14-4.48.14s-2.94.28-4.34.14c-.84-.14-1.54-.28-2.24-.42a5.36,5.36,0,0,1-2.1-.7c-.7-.42-1-1.26-1.68-1.68a7.17,7.17,0,0,0-2.1-1,16.07,16.07,0,0,1-2.38-.84,1.36,1.36,0,0,0-.88-.13c-22.63,1.23-105.32-4.63-120.37-5.72l-4.24,60.22c17.2,1.18,32.35,1.64,43,.92l-1.48,31.15c22.23,1.47,109.52,6.85,151.18,4.08a14.13,14.13,0,0,1-.45-1.53A10.21,10.21,0,0,0,888.78,382.49Z" transform="translate(-60.42 -53.76)"/></g><g id="MT"><path class="cls-1" d="M714.9,114l-6.35,90.09-2,28L561.88,217.3l-1.57,10.59c-1.39-.26-6-1.15-7.32-1.3a13,13,0,0,0-7,.79c-4.41,1.62-8.61-.23-13.1.21-4.91.48-7,.25-11-2.94-1.88-1.51-2.64-3.52-4.05-5.4s-2.63-2.27-4.56-3.4c-3.18-1.88-1.81-4.78-1.38-7.68a14.56,14.56,0,0,0-1.06-8,17,17,0,0,1-.91-5.81c-.29-4.7-2.33-8.6-6.79-4.83-2.07,1.75-2.25,2.43-4.69.92a26.45,26.45,0,0,1-4.54-4.13,7.06,7.06,0,0,1,.55-10.78c1.5-1.2,3.25-1.77,4.21-3.64,1.11-2.14.18-4,.35-6.37.14-1.94,1.61-3.56,1.39-5.61-.4-3.9-7.76-3.38-10.42-5.53-3.18-2.58-5-6-6.59-9.58-1.71-4-3.69-7.26-3.43-11.77.15-2.61,1.28-2.65,2.59-4.69,1.58-2.46.38-2.49-.35-4.83-.3-1,.11-2.45-.27-3.36s-1.7-1.3-1.91-1.74c-1.29-2.58.75-7.81,1.3-10.62l1.92-10q1.29-6.7,2.59-13.42A2005.63,2005.63,0,0,0,714.9,114Z" transform="translate(-60.42 -53.76)"/></g><g id="MO"><path class="cls-1" d="M1031,471.79a2.63,2.63,0,0,0-1.55-1.11c-1.9-.54-2-.06-3-1.85-.84-1.52-1.79-1.92-2.8-3.19-1.52-1.9-.49-6.32-.74-8.77a7.33,7.33,0,0,0-1.27-4.12c-1-1.25-2.22-1.84-2.89-3.34-.48-1.09-.22-3.16-1.3-3.88s-3,.37-4.44-.19c-2.24-.87-4.61-4.33-6.3-6.22s-5.1-2.59-4.52-6c.14-.83.65-1.15.93-1.87a8.32,8.32,0,0,0,.37-2,12.4,12.4,0,0,1,1.17-3.91,9.66,9.66,0,0,0-.08-8.74c-1.53-2.81-4.43-3-6.45-.75-1.32,1.45-1.53,1.39-3.08,0a6.8,6.8,0,0,1-2.2-3.78c-.49-2.41-.65-5.76-2.47-7.65-.91-1-2.37-1.06-3.49-1.91a11.94,11.94,0,0,1-2.67-3.28c-1.58-2.35-4.09-2.69-6-5a14.28,14.28,0,0,1-3.52-7.06c-.44-2.55-2-5.28-1.81-7.88.11-1.44.72-2.54.56-4.14-.15-1.39-1.08-2.81-1-4.11a2.27,2.27,0,0,1,.09-.5l-.47-.25c-.56-.28-1-.66-1.58-.93a3.5,3.5,0,0,1-.84-.84c-.38-.37-.84-.75-1.22-1.12-.18-.28-.56-.56-.56-.84l-86.22,2.82c.57,2.54.89,5.41,1.86,7.82s3.82,3.26,5.24,5.32a10.21,10.21,0,0,1,1.68,3.74,14.13,14.13,0,0,0,.45,1.53,4.82,4.82,0,0,0,1.16,1.91c1.87,1.78,4.37-.45,5.82,1.75s-.2,4.47-1.06,6.44a6.07,6.07,0,0,0-.14,3.14c.06,1.13-.36,2.31.17,3.33s1.89,1.6,2.77,2.38,1.82,1.9,2.8,2.8c1.33,1.2,3.81,2.63,3.53,4.76l2.27,62.31.57,15.67c18.22-.07,100-5.13,103.13-5.32v0l-.19-.24a.09.09,0,0,1,.1.09h.1v.15l0,0a6.39,6.39,0,0,1,1.37,3.17,4.56,4.56,0,0,1-.28,2,14.73,14.73,0,0,1-.93,2.05c-.75,1.73-4.17,7.89-.19,7.61s7.9-.24,11.75-.9a9.48,9.48,0,0,0,.1-1.39,54,54,0,0,1,.19-8.59c.23-1.58.91-2.08,1.64-3.39a4.06,4.06,0,0,0,.29-.69c0-.08.05-.17.08-.26s.09-.34.13-.51c.08-.33.15-.67.23-1,0-.1.06-.21.09-.32h0a2.89,2.89,0,0,1,.1-.3,2.05,2.05,0,0,1,.1-.26,1.34,1.34,0,0,1,.11-.21,2.63,2.63,0,0,1,.21-.33c1.31-1.68,2.31-.13,3.92-.74s.92-5.06.83-6.54S1031.74,473,1031,471.79Z" transform="translate(-60.42 -53.76)"/></g><g id="MS"><path class="cls-1" d="M1061.5,638.95v-8.4c0-2.8-.56-5.6-.56-8.4,0-5.88-.56-11.48-.56-17.36,0-3.08-.28-6.16-.28-9.52,0-2.8.28-5.88,0-9-.56-5-.28-10.36-.28-15.68,0-2.52.56-4.76.56-7v-8.12c0-5.32-.56-10.36-.56-15.4a18.93,18.93,0,0,1,.56-3.92,23.72,23.72,0,0,0,0-4.48c0-1.12.28-2.24.28-3.36v-.12c-25,2-44.85,3.27-50.07,3.59a17.77,17.77,0,0,0-3,7.55c-.25,1.38.08,2.93-1.12,3.75-.11.07-.87-.36-1.48.16a5.62,5.62,0,0,0-.9,2.1c-.37,1.42-.42,7-2.62,6.84-.35-1.62-2.76-.07-3.05.93-2.3,0,.12,4.92-1.64,6.34-1.17,1-2,.1-2.43,2.09-.31,1.4.14,3,0,4.48a5.93,5.93,0,0,1-1.45,3.55c-1.25,1.33-1.5,1.07-1.91,3s-3.21,5.19-1.12,7.07c1.25-1,3.05-4.91,4.29-2.63,1.38,2.53-2.62,4.38-2.58,6.49,2.24,1.67,4.37.21,2.58,3.81a5.08,5.08,0,0,0-.75,3.32c0,.17.1.51.19.89h0a5.52,5.52,0,0,0,.74,1.91c.7.53,2.27-.92,2.45.75.09.93-1.84,2.06-2.07,2.8-.29,1-.09,5.07.43,5.89,1.19,1.88,3.06-.5,4.3.41,1.07.78-.69,3.59-1,4.34a4.69,4.69,0,0,0-.57,2.24c.16,1.06.8.95,1.08,1.68.53,1.36,0,2.47-.92,3.69-.42.54-1.18.87-1.51,1.53-.49,1,0,1.37,0,2.26,0,1.89-.7,1.44-2.19,2.42s-.83,2.51-1.91,3.5-2.52.31-2.77,2.09a5.36,5.36,0,0,0,0,1.47c1.89-.28,1.6.72.72,1.56s-3,1.33-2.81,2.95c.19,1.32,2.11.82,1,2.29s-2.85.71-1.73,3.05c.61,1.28,1.92,1.32.38,2.82-1.94,1.9-2.92,1.71-2.24,4.53a31.71,31.71,0,0,1,.77,5.95c1.32,0,3.73.12,4.83-.35l16.47-1.07,12.85-.85c2.63-.17,6.52-1.18,9.11-.59,2.83.65.73,4-.22,6-.5,1-1.14,2.74-.7,4,.35,1,1.24,1.62,1.68,2.61.53,1.2.35,1.66,1.54,2.56.91.7,2,1.18,2.9,2a6.68,6.68,0,0,1,2,4c.08.57-.17,1.74.11,2.21s1.54.6,2.08.81a8.75,8.75,0,0,1,3.15,2.36,2.72,2.72,0,0,0,.07-.88c-.13-1.33-1.72-2.2-1.47-3.6.3-1.65,4.4-3.39,5.83-3.9,2.24-.79,4.62-.5,6.77-1.64a8.82,8.82,0,0,0,1.15-.75v-.18h.28v.28c.84.56,1.4,1.68,2.52,2,2,.56,2.52-1.4,2.52-3.08,0-.45,0-.9.07-1.35a19.38,19.38,0,0,0,.21-4.52,21.18,21.18,0,0,1-.28-4.2c0-.56.28-.56.56-1.12.84-.84,1.4-2.8.28-3.64a7,7,0,0,0-.28-2.24c-.28-1.4-.28-1.68.84-3.08C1061.78,642.31,1061.5,640.63,1061.5,638.95Z" transform="translate(-60.42 -53.76)"/></g><g id="MN"><path class="cls-1" d="M994.76,146.17c-5.29,4.13-12.28,5-17.07,10.09-2,2.16-3.72,4.58-5.79,6.69s-4.18,3.63-6.3,5.42c-4.43,3.76-8.51,8.05-12.81,12-2,1.82-1.89,2.86-.82,3.4a5.73,5.73,0,0,1-1,.06c-4.79,0-3.29,5-3.1,8s.27,5.85.35,8.77c.09,3.1.6,4.2-1.94,6-3.47,2.39-7.28,5.75-7.78,10.2-.13,1.2-.65,3,.09,4.11s2.39,1.35,3.09,2.33c1.11,1.58.48,2.46-.41,3.83A7.41,7.41,0,0,0,940,231c-.31,3-.44,6.15-.89,9.15-.17,1.12-.45,3.23.19,4.26s2.64,1.61,3.56,2.41c1.31,1.14,1.73,2,3.48,2.3a40.78,40.78,0,0,1,4.12.88,15.05,15.05,0,0,0,3.92,1c1.53.07,2.66-.64,3.88.6a39.54,39.54,0,0,1,2.24,3.37c.85,1.15,1.69,2.35,2.43,3.54a8.17,8.17,0,0,0,3.21,2.94c1.59,1,1.35,1.65,2.29,3.17,1.52,2.48,4.79,2.73,6.44,4.9.94,1.24.92,2.64,1.2,4.07.17.87.68.74.48,1.63s-1.11,1.13-1.4,1.85a6.37,6.37,0,0,0-.1,2.87c0,.19,0,.37.05.56-17,2.94-87.86,3-107.73,2.9l-.53-53.12a30.36,30.36,0,0,1-5.78-6.9c-1.16-1.76-1.22-3.53-1.12-5.6.13-2.75,1.71-5.08,2.33-7.57a6.54,6.54,0,0,0-.46-4.75L859.54,201a10.58,10.58,0,0,1-.75-2.24,2.65,2.65,0,0,1-.19-2.06,10.63,10.63,0,0,0-.19-2.42c-.18-.93-.94-1.5-1.3-2.43a9.07,9.07,0,0,1,0-4.48c.18-.93.74-1.49.74-2.43,0-.74-.38-1.3-.38-2.06-.18-1.3.38-2.42.19-3.73-.56-1.87-1.68-3.36-.94-5.6.37-.75.56-1.68.94-2.61a9.44,9.44,0,0,0,.74-2.43,6.14,6.14,0,0,0-.74-2.62,4.84,4.84,0,0,0-.75-1.3c-.37-.37-.37-.75-.75-1.12a10.34,10.34,0,0,1-1.68-2.24c-.18-.94.19-1.87-.18-2.62-.37-.94-1.5-1.68-1.87-2.61a14.91,14.91,0,0,1-.37-2.61,21.29,21.29,0,0,1-.19-6,22.58,22.58,0,0,0,.19-5,5.72,5.72,0,0,0-.75-1.87c0-.19-.18-.19-.37-.37a4.4,4.4,0,0,0-.56-.94c-.19-.56-.56-3,0-3.36,0-1.12.18-2,.18-3,.56-.74.56-2.24.94-3.17a3.28,3.28,0,0,0-.37-2.61c-.37-.75-.56-1.68-.93-2.43-.19-.56-.56-1.12-.74-1.68v-1.49a7.76,7.76,0,0,0-.64-2.7q10.8,0,21.73-.14c2.67,0,5.34,0,8,0,1.77,0,3.56.06,5.34,0s2.43-.3,2.69,1.65c.17,1.23-.1,3.76,2,2.59,1.43-.81,1.61-2.87,3.42-3.62s4.05-1.39,5.07.84c.77,1.69.29,3.49,2.32,4,1.5.38,3.72-.67,5.16.78,1.65,1.67,2.75.15,4.64.4s3.15,2.22,4.77,3.05a4.83,4.83,0,0,1,2.93,3.31c1.12.24,1.7-1,2.53-1.5a14.42,14.42,0,0,1,5.41-2c2.1-.22,3.4,1,5.28,1.65,1.38.45,2.73-.16,4,.68s1.47,1.73,2.91,2.15,2.33.19,3.42,1.34,1.09,2.6,2,3.6c1.2,1.36,1.64.34,2.93-.1,2.25-.76,5.29,1.94,7.23,3.08a26,26,0,0,0,3.22,2c1.24.49,2.66.31,3.88.81,1.55.63,1.66,1.3,3.12,0,.89-.77,1.07-1.82,1.8-2.61,1.14-1.24,2.41-.33,3.8-.66s1.89-1.4,3.58-1.12,1.95.94,3.54-.14c.76-.51.58-.87,1.56-.68.78.14,1.28,1.09,2.16,1.21,2.17.31,2.62-1.24,4.73.27,2,1.4,2.44.66,4.6.77,1.54.07,2.73,1.26,4.12,1.86S997,144.45,994.76,146.17Z" transform="translate(-60.42 -53.76)"/></g><g id="MI"><path class="cls-1" d="M1159.67,268.29c-1-1.63-2.11-2.59-2.06-4.61s.33-3.63-.65-5.42c-.87-1.58-2.44-2.72-3.06-4.44s-.28-3.75-1.25-5.44a7.36,7.36,0,0,0-3.57-2.91c-2.06-.73-3,.88-4.5,1.87s-3.27.66-5,.65c-.66,1,.12,2.21-.86,2.93-.31.24-.83.16-1.2.53a3.58,3.58,0,0,0-.74,1.31c-.59,1.71-1.45,5.86-3.17,6.77-2.35,1.25-4.59-2-5.61-3.66-1.58-2.55-.53-4.1,1.37-6s2.53-3.82,3.5-6.24c.79-2,2.74-3.1,3.47-5,1-2.73-.63-6.32-1.07-9-.4-2.42.1-5.08-.93-7.36-.34-.74-4.44-5.7-4.18-6.08.46-.67,3.47,1.89,4.35.69,1.09-1.48-3.74-5.58-4.6-6.41-2.05-2-4.19-4-7-4.62-2.35-.54-4.68-.26-6.9-1.33s-3.85-1.91-6.34-1.08-3.09.1-4.7-2c-1.75-2.26-3.63-3.18-5.82-.86-1.32,1.4-3.19,3.71-2.31,5.73.57,1.31,4,3.74,3.44,5.27s-5.14,1.07-6.49,2c-2.09,1.38-1.13,3.93-.84,6,.33,2.28-.09,4.45-.14,6.72-.05,1.78.3,3.63-.4,5.37-.41-.87-.82-1.74-1.26-2.59-.51-1-1-2.61-2.06-1.39-.7.84-.73,4.4-1.77,4.75-.87.29-.28-3.12-.17-3.64a37.8,37.8,0,0,1,1.47-3.88c.41-1.28.64-7.83-1.34-7.48-1.14.21-2,2.39-2.28,3.3-.43,1.4-.21,3.15-.95,4.44s-1.78,1.06-2.8,1.68c-1.28.78-1.38,2.24-1.69,3.58-.7,3.05-2.91,4.66-2.73,8a34,34,0,0,1-.68,9.73c-.58,2.59-3.22,4.76-2.69,7.47.28,1.47,1.27,2.73,1.47,4.22s-.51,2.56-1,3.8c-1.18,2.9-.92,5.2,1.13,7.56.16,2.11.48,3.33,2.2,4.6,2,1.47,2.14,3,2.64,5.26a17.68,17.68,0,0,0,1.49,4.4c.94,1.7,1.88,2.32,1.31,4.43-1,3.78-.25,7.79-1.2,11.6s-2.45,7.21-3,11.11a15.55,15.55,0,0,1-3.56,7.93c10.79-1,34.64-3.1,40.66-4.1v2.28l.38,0c2.85-.33,20.93-2.47,28-3.8a2,2,0,0,1-.31-.77c-.6-3.24,3.86-5.27,4.21-8.28.18-1.6-.72-3.16-.58-4.78a7,7,0,0,1,1.57-3.34c1.62-2.31,3.85-4.17,5.8-6.2,1.53-1.58,2.06-3.76,2.73-5.78a14.88,14.88,0,0,0,.78-2.8,4.18,4.18,0,0,1,.82-2.59,14.73,14.73,0,0,0,1.87-1.95c.84-1.42.46-3.49-.16-4.92C1160.06,271.71,1160.62,269.88,1159.67,268.29Z" transform="translate(-60.42 -53.76)"/><path class="cls-1" d="M1112,187.12a5.88,5.88,0,0,1-2.59-2.19c-.5-1-.41-2.12-.82-3.11-1.62-4-9.59-2.26-12.89-2a.42.42,0,0,1,.06-.23,4,4,0,0,1-2.83-1.69c-.7-1.27,0-2.57,0-3.9-.07-2.51-3.1-2.39-5-2-2.22.44-3.58,2-6,2.12-2.14.09-4.45-.54-6.54-.23-2.39.36-3.3,2.76-5.16,4-1,.29-1.63,1.25-2.53,1.7-1.15.58-2,.76-2.9,1.82a4.56,4.56,0,0,1-2.93,1.68c-1.17.26-2.19-.07-2.91,1-.14.89-.57,2.32-1.66,2.14s-1.16-2.21-1.81-2.92c-1.44-1.57-4.91.07-5.59-2.37-1.13.26-2.08-1-3-1.57a10.3,10.3,0,0,0-3.09-1.66c-1.31-.22-2,1.27-3-.4-.4-.67,0-1.19-1-1.07-.73.09-.87.94-1.37,1.06.26.7-2.17.9-2.8.66,0-.13,0-.25,0-.38,1.05-.35,1-.77.53-1.52a16,16,0,0,0-1.09-1.76c-1.57-1.38-2.2,2.18-3.63,1.27,0-1,.46-4.28-1.13-4.55-1.29-.21-1.89,2-2.78,2.49a11.93,11.93,0,0,1-1.41,2.26c-1,1.14-1.9.84-2.31-.63a7,7,0,0,1,1-5.47c1-1.47,2.41-2.19,3.81-3.15a8.06,8.06,0,0,0,2.62-3.22,15.67,15.67,0,0,1,3.11-4.49c1.14-1.06,3.07-1.79,4-3,1.88-2.51-5.07-1.3-6-.91-2.92,1.18-5.2,3.81-7.51,5.88-3,2.7-5.5,6-8.63,8.54a74,74,0,0,0-7.23,6c-2.61,2.71-5,2.42-8.51,2.79s-5.16,2.76-7.78,4.68a32.73,32.73,0,0,1-6,3.17l-.13.05a2.26,2.26,0,0,1,.38.19,17.2,17.2,0,0,1,2,1.4,12.86,12.86,0,0,1,1.82,2.94c1,2.38,2.66,5,5.46,5.46,1.12.14,2.24.28,3.5.42s2.52.84,3.92,1,2.8.42,4.2.7a7.44,7.44,0,0,0,1.82.14c.84.14,1.68.42,2.52.56,2.93.48,6.47,1.24,8.86,3.19a3.94,3.94,0,0,0,2.77,1.29c1.24,0,2.11-.68,3.22-.7s1.93.86,3.09,1,2.57-.57,3.39.25,0,2.11.49,3c.58,1,1.89.45,3.07.63a16.84,16.84,0,0,1,2.84,1.15c1.1.35,2.09-.21,2.25,1.27.08.76-.71,2-.86,2.8-.23,1.23-.22,2.42-.52,3.64-.14.53-.84,2.51-.28,2.91s2-.82,3.06-.36,1.55,1.73,2.33,2.39a11.06,11.06,0,0,0,2.45,1.19c1.29-2.75,3-5.68,3.18-8.65a6.33,6.33,0,0,1,.46-2.82c.6-1,1.78-1.45,2.29-2.5s.06-4.62,2.54-4c.19,2.52,1.85,1.45,3.68,1.09,2.27-.45,2-3.24,2.79-5,.41-.91,1.85-1.58,2.48-.4s-.92,2.53-1.27,3.47c-.28.75-.9,3.1-.08,3.7,1,.7,2-.92,2.49-1.53.7-.88,1.61-1.59,2.24-2.51a26.68,26.68,0,0,1,2-3.13c1.79-2,4.07-2.32,6.66-2.57,1.29-.12,2.56-.16,3.54-1.09a18.59,18.59,0,0,1,2.55-2.09c.9-.61,1.41-1.8,2.42-2.22,1.17-.49,2.76.1,4,.08a6.59,6.59,0,0,1,3.32.62,21.88,21.88,0,0,0,3.84.79,9.74,9.74,0,0,1,3.37,1.26c1,.72,1.21,2.21,2.54,2.45,3.8.66-.73-5.09,2.41-5.25,1,.64,1.62-.1,2.43-.59,1.29-.78,2.15-.47,3.57-.42C1114.88,191.21,1113.89,188.27,1112,187.12Z" transform="translate(-60.42 -53.76)"/></g><g id="MA"><path class="cls-1" d="M1422.24,262.19a6.32,6.32,0,0,1-3,3.91c-2.09,1.06-3.14-1-3.87-2.66-.94-2.16-1.3-2.7-2.81-.62-1,1.33-2.63,2.6-3.11,4.19a19.26,19.26,0,0,0-.31,2.26,28.14,28.14,0,0,1-9.66-12.49c-.92-.08-4.95.68-10.34,1.82-12.91,2.73-33.57,7.66-37.66,8.65.07-.34.12-.89.15-1.23.07-.67.07-1.4.11-2.1.1-1.53.56-2.88.56-4.48,0-3.89.36-7.49-.28-11.34,0,0,0,0,0,0h0c2.68-.55,9.34-1.93,16.56-3.5,9.18-2,19.25-4.34,23.15-5.69a3.64,3.64,0,0,0,2.58-1.55c1.12-1.26,2.52-2.52,3.78-3.78a40,40,0,0,1,3.36-3.64c.86-.54,2.29-1.72,3.41-2.56a9.2,9.2,0,0,0-.36,3.25c.17,1.94.64,3.49,2.54,4.26,1.39.56,3.38.92,1.42,2.35-1.74,1.28-3,1.55-3.55,3.83-.3,1.29-1.46,3.87-.39,5,1.25,1.3,3.86.68,5.33,1.76s1.59,3.34,2.59,4.86,2.75,1.51,4,2.67,1.4,3,3.05,3.76S1422.64,260,1422.24,262.19Z" transform="translate(-60.42 -53.76)"/></g><g id="MD"><path class="cls-1" d="M1344.45,382.46a4.15,4.15,0,0,0-.67,2.14c0,.7,0,1.55-1.17,1.37-.06-.25-.22-.31-.33-.52-.6.21-.63.83-.81,1.36a3.25,3.25,0,0,1-.63,1.28,13.73,13.73,0,0,0-1.08,1.4c-.31.5-.36,1-1.06,1-.37-.71.21-1.68-.58-2.08-1.15-.58-1.76,1-1.81,1.8,0,1.08.4,1.43,1.22,2.09.59.47,1,1.38,1.67,1.7.65-.77.36-2,1-2.7.89-.91,1.53.06,1.71,1,.38,1.95-1.64,2.59-2.72,3.88-1.69,2-.18,3.26-.85,5.43a6.08,6.08,0,0,1-3.42,3.57c-3,1,1,2.89.64,4.54-1.6-1-3,0-2.56,1.88.2.86.85,1.57,1,2.46a5.25,5.25,0,0,1-.53,2.54c-.45,1.24-1,3.74-2.8,3.34-2.06-.44-1-3-1-4.32,0-1.62-1.31-3.12-1.87-4.62,1,.6,1.43-.24,1-1s-1.26-.72-.62-1.6,1.19-.17.84-1.51c-.19-.7-.95-1.36-.88-2.11.12-1.21,1.27-.28,1.21-1.43,0-1-1.41-1,.11-1.54.3-.12.56.22.95-.05s.13-.81.43-1,.82,0,1.14-.2.3-.71.59-1c.49-.45,2.3-.7,1.79-1.7s-2.22.09-3,0c-.12-.54.19-1,.24-1.5-.6-.07-1.5.17-1.68.79a2.32,2.32,0,0,1-.93,0c0-.55-.33-.74-.4-1.23s.18-1,.12-1.35a1.6,1.6,0,0,0-1.82-1.21c-.19-1,.56-1.77.38-2.75a11.38,11.38,0,0,0-1.5.09c-.33-1.25.86-1,1.12-1.94.19-.65-.58-2-.64-2.7-.11-1.07,0-1.17-1.28-1.6-4.67-1.56-.54,5.15-5.12,3.56-1.5-.52-1.69-1.56-2.2-2.82-.41-1-.36-1.81-1.19-2.68-.61-.64-1.7-.68-2.23-1.47-.64-1-.36-2.39-.54-3.48-.29-1.82-1.09-5.11-3.2-5.66-3.47-.92-4.29,3.34-3.06,5.57,2.11,3.84,3.89,7.91,6,11.82,1.06,1.94,2.25,4.08-1.14,4.4s-2.5-3.58-5-4.41c-1.5-.51-2,1.07-3.2,1.36-1.43.35-1.11-.25-2.37-.59-2.11-.57-4.13,1-6.19-.25a3.26,3.26,0,0,0,.25,2.27,6.15,6.15,0,0,0-1.27-.09,2.36,2.36,0,0,1-1.56-.48l-.15-.17h0l-.09-.13a1.41,1.41,0,0,1-.16-.48,1.32,1.32,0,0,1,0-.38,7.34,7.34,0,0,1,1.95-3.25l.2-.19c.13-.12.27-.24.39-.36a1.65,1.65,0,0,0,.52-.8,1.14,1.14,0,0,0,0-.47l-.42-2.1c0-.19-.07-.38-.11-.57l-.07-.36h0a3,3,0,0,1,0-.53c0-.05,0-.09,0-.14a1,1,0,0,1,0-.15,1.44,1.44,0,0,1,0-.18,1.37,1.37,0,0,1,.17-.42c.31-.52.55-.81.48-1.26a1.91,1.91,0,0,0-.2-.56,3.59,3.59,0,0,0-.43-.57h0l-.22-.22-.11-.11a8,8,0,0,0-.72-.61,3.65,3.65,0,0,0-.49-.31,12.77,12.77,0,0,1-2.1-.84c-1.12-.84-2.52-2.66-4.06-2.8a3,3,0,0,1-1.12,0l-.09,0-.11-.07-.06,0-.09-.07,0,0-.41-.38-.18-.18a4,4,0,0,1-.34-.3h0l-.17-.19h0a2.1,2.1,0,0,1-.36-.75c0-.16-.08-.35-.11-.56s0-.16,0-.25,0-.32-.09-.48h0a5.78,5.78,0,0,0-.16-.6l-.06-.17a2.39,2.39,0,0,0-.14-.32h0a2.38,2.38,0,0,0-.18-.31h0a2.45,2.45,0,0,0-.33-.42l-.15-.14h0a2.19,2.19,0,0,0-.53-.35h0a2.26,2.26,0,0,0-.43-.16,4.61,4.61,0,0,0-2.38.14l-.17,0-.21,0a1.2,1.2,0,0,1-.31,0h0a.47.47,0,0,1-.2-.08h0l-.07-.07a5.61,5.61,0,0,1-.43-.9l-.1-.17a3.28,3.28,0,0,0-.23-.33,5,5,0,0,0-.43-.48l-.16-.15a4.11,4.11,0,0,0-.88-.61,2.16,2.16,0,0,0-.75-.24h0a8.74,8.74,0,0,1-2.36-.64l-.11-.06-.07,0,0,0a13.59,13.59,0,0,0-2-1.32,5.7,5.7,0,0,0-2.45-.41,8.93,8.93,0,0,0-2.59.3,3.29,3.29,0,0,0-1,.52l-.34,0-.5,0H1264l-1-.08-.35,0-.7-.08-1.17-.15-.26,0-.39,0-.34,0-.27,0a10.8,10.8,0,0,0-6.7,2,14.72,14.72,0,0,0-2.83,1.93c-.9.95-.95,1.86-1.57,2.91-1.24,2.11-3.61-.1-5,2.17-.55.91-.35,2.16-.77,3.15s-1.12,1.47-1.92,2.27c0,.42-.7.56-1,.7a37.13,37.13,0,0,0-.56-3.92c-.28-1.68-.42-3.36-.56-5.18s-.28-3.36-.41-4.9c-.12-.82-.14-1.54-.23-2.33l76.12-13.72,5.72-1,6.44,29.12,14.66-4.4C1342.18,374.55,1346.14,378.93,1344.45,382.46Z" transform="translate(-60.42 -53.76)"/></g><g id="ME"><path class="cls-1" d="M1465.65,150.57c-1.28-.31-2.25,4-3.58,4.46a2.83,2.83,0,0,1-2.61-.67c-.49-.85.66-1.72.76-2.56a4.91,4.91,0,0,0-.82-3c-.71-.64-1.8-.06-2.18-1.21-2.53-.94.84-4.6-2.33-4.79-1.27-.08-2.07-.19-2.87-1.34-.54-.78-.52-1.88-1.37-2.41-1.44-.89-4.08-.34-5.72-.82-2.45-.73-2.94-2-3.36-4.38-.16-.89-.16-1.71-.89-2.34a11.13,11.13,0,0,0-1.25-.68c-.5-.25-.72-.57-1.35-.49.36-1.88.84-3.67.26-5.53-.44-1.41-.32-2.85-.79-4.25-1.07-3.22-1.77-6.84-3.22-9.9a47.88,47.88,0,0,1-3-9.65c-.84-3.48-1.65-6-4.11-8.61a20.11,20.11,0,0,0-4.86-3.24c-1.24-.72-2.88-2.8-4.45-2.06-.79.38-1.47,1.39-2.2,1.92a6.92,6.92,0,0,0-2.15,2.08c-.54.89-.77,1.57-1.85,1.85s-2,.06-2.91.32c-.74.21-1.49.81-2.28.78-1.72-.06-3.27-2.54-4-3.89s-1-3.67-2.69-3.79c-2.08-.13-3.1,2.45-3.52,4-.68,2.55-1.59,5.08-2,7.68a76.14,76.14,0,0,1-1.45,7.84c-1.33,4.73-3,9.4-3.92,14.21-.26,1.4.6,2.91.89,4.23s-.23,2.47-.1,3.76c.12,1.12,1,1.81,1,3.11,0,1.11-.63,2.43-.47,3.5s1.25,1.44,1.55,2.33c.37,1.11,0,2.94-.11,4.09a3.63,3.63,0,0,1-1.47,3.07c-1.06.74-1.6.72-1.63,2.26,0,.76.55,2.69-.94,2.39.14,1.76,2.76,6.93.69,8-.47.24-1-.18-1.46.24s-.25,1.23-.25,1.72a12.6,12.6,0,0,1-.55,3.74c-.35,1.11-1,2.63-2.37,2-1-.42-1.18-2.15-2.24-2.25a1.34,1.34,0,0,0-.93.3l11.59,41.68c.24.59.4,1.22.63,1.7s.56.93.56,1.49a5.16,5.16,0,0,0,.19,1.68c.19.37.56.93.93,1.5.75.74,1.87.93,2.62,1.5.93.74.93,2.61,1.3,3.54.19,1.5,1.49,2.06,2.62,3s3.2.72,4.47,1.68a16.57,16.57,0,0,0,.15-3.46c-.31-2.42,1.12-2.3,2.25-4.11.84-1.37,1.11-3.12,1.82-4.54a15.21,15.21,0,0,1,3.37-4c1.7-1.62.23-3.8,1.07-5.89.68.43,1.88,1.8,2.75,1.1.48-.4.4-2.06.23-2.58-.29-.87-1.24-1.54-.62-2.57.45-.77,1.38-.71,2.21-.4-.19.72-.66,2.38.3,2.8,1.28.56,1.25-1.4,1.27-2.15a10.31,10.31,0,0,1,.55-2.78c.18-.66.14-2.67,1.2-2.55,1.3.14.41,2.6.3,3.24s-.38,3.19.76,3.19c.93,0,1.06-2.29,1.12-2.86.11-1.1-.24-3.52,1.15-4s1.5,1.17,1.65,2.1c1.19,7.69,6.69-4.42,2.36-4.88-.87-.09-1.84.62-2.31-.51s.8-1.15,1.5-1.62c1.5-1,0-3.72-.61-5.07-.29-.59-.92-2.16.25-2.46s.63,1.62,1.26,2.18c1.14,1,1.5-.73,1.28-1.68s-1.27-1.78-.77-2.86c1.09-2.33,3.32.18,3.77,1.51s-.76,1.33-.76,2.38c0,1.35,1.44.32,2.19.21,1.62-.24,5.57,3,4.09-.81-.58-1.51-1.1-4.55,1.05-5.12,2.51-.68,1.61,2.45,2,3.64.64,2.06,3.16.71,2.85-1.18-.16-1-1.26-1.32-1.42-2.18s.48-1.33,1.21-.82.57,1.81,1.65,1.89,1.19-1,1.14-1.76-.65-5.21,1.17-3.38c1.13,1.13,0,3.89,2.29,3.91.12-1.72-.37-3.89.12-5.54.42-1.41,1.2-1.81,1.83-.36.44,1,.46,1.76,1.54,1.71a4.31,4.31,0,0,0,2.23-1c1.24-1.26.86-3.47,1.7-5,.63-1.13,1.24-1.71,1.89-.4.52,1,.32,1.85,1.76,1.62.48-1.36-.23-2.32-.07-3.63s1.25-2.06,2-2.94C1464.84,156.11,1468,151.15,1465.65,150.57Z" transform="translate(-60.42 -53.76)"/></g><g id="LA"><path class="cls-1" d="M1039,689.11c-.81,1.33-2.33,1.86-1.79,3.69,1.84,1.05,3.15,2.61,4.74,4,1,.85,3.95,3.67.48,3.11-2-.31-2.95-3.51-4.52-4.51-2.15-1.36-3.56.61-6,.81-.23-1.26,1.13-5.19-1.55-4.81-1.83.25-2.23,4.38-2.51,5.77-.18.86-.22,2.28-.77,3-1,1.26-1.62.45-2.75,1.11s-2.22,4.74-3.77,2.14c-.45-.76.82-1.68,0-2.25-.46-.34-3,.69-3.62.74-1.56.13-4.29-1.16-5.61-.3-2.26,1.47-.55,4.09-4.31,2.4a16.9,16.9,0,0,0-5.29-1.8c-2.36-.31-4.36-.3-6.49-1.55-3.43-2-.41-2.84,1.64-4.85-2.33-2.28-6.27-2.73-9.79-3a3.74,3.74,0,0,1,.21-2.12c-2.62-1.14-5,1.27-7.53.43-1.28-.42-1.36-1.5-3-1.34-1.06.11-1.93,1.18-2.9,1.51-2,.66-2.31-.08-4.14-.79s-2.67-.26-4.57,0a31.13,31.13,0,0,1-8.23-.37,19.94,19.94,0,0,1-4-1c-1.27-.51-2-1.85-3-2.32-1.92-.85-6.31.93-8.46,1.31-3.54.62-6.87.88-10.21,1.54a4,4,0,0,1,.26-.34c.28-.37.65-.75.93-1.12.09-.18.28-.46.37-.65l.56-.56a5.19,5.19,0,0,0,.47-2.9,6.16,6.16,0,0,1,0-1.3c.09-.56.65-.93.93-1.4a4.79,4.79,0,0,0,.56-3c-.09-1.12-1.12-2-1.68-2.89a5.44,5.44,0,0,1-1-2.89c.1-1,1.4-1.68,1.78-2.7s-.28-2.06-.47-3a4.91,4.91,0,0,1,.28-3.26,12.58,12.58,0,0,1,.65-1.68,8.4,8.4,0,0,0,.84-1.59c.37-1,.09-2.05.28-3.08.1-.56.65-.75.94-1.21a2.29,2.29,0,0,0,.09-1.59,10.66,10.66,0,0,0-1.21-3,9.17,9.17,0,0,1-.56-1.49,4.6,4.6,0,0,1,.09-1.59c.19-1.59.84-3.17.47-4.76a8.15,8.15,0,0,0-1.31-2.89c-.56-.94-1.4-1.59-2-2.52-.28-.47-.56-1-.84-1.5a14.09,14.09,0,0,1-.93-1.21,10.69,10.69,0,0,1-.93-2.43c-.18-.74,0-1.77-.46-2.33-.9-1.09-1.51-1.3-1.66-2.89-.13-1.36-.42-1.18-1.3-2.08-1-1.06-2.36-3-2.26-4.55l-.86-26.84,70.3-2.87a5.63,5.63,0,0,0,.74,1.91c.7.53,2.27-.92,2.45.75.1.93-1.84,2.06-2.07,2.8-.3,1-.09,5.07.43,5.88,1.19,1.88,3.06-.5,4.29.41,1.07.78-.69,3.59-1,4.34a4.65,4.65,0,0,0-.56,2.24c.16,1.06.79.95,1.07,1.68.53,1.36,0,2.47-.92,3.69-.41.54-1.17.87-1.51,1.53-.49,1,0,1.37,0,2.26,0,1.89-.71,1.44-2.2,2.42s-.83,2.51-1.91,3.5-2.51.31-2.76,2.09a5.35,5.35,0,0,0,0,1.47c1.89-.28,1.6.72.72,1.56s-3,1.33-2.81,2.95c.18,1.32,2.11.82,1,2.29s-2.85.71-1.73,3.05c.61,1.28,1.92,1.32.38,2.82-1.93,1.9-2.92,1.71-2.24,4.53a31.86,31.86,0,0,1,.77,5.95c1.32,0,3.73.12,4.82-.35l16.48-1.07,12.85-.85c2.63-.17,6.52-1.18,9.11-.59,2.84.65.73,4-.22,6-.5,1-1.14,2.74-.7,4,.35,1,1.24,1.62,1.68,2.61.53,1.2.35,1.66,1.54,2.56.91.7,2,1.18,2.9,2a6.65,6.65,0,0,1,2,4c.09.57-.17,1.74.11,2.21s1.55.6,2.08.81a8.76,8.76,0,0,1,3.15,2.36,6.21,6.21,0,0,1-1.63,2.7c1.14,1.46,4.15.94,5.07,2.21,1.34,1.86-1.89,3.45-3.1,4.41C1040.21,686.06,1040,687.36,1039,689.11Z" transform="translate(-60.42 -53.76)"/></g><g id="KY"><path class="cls-1" d="M1189,439.91h0l-.11.08-.06,0-.07.06h0c-1.15.89-2,2.56-3.12,3.41a2.38,2.38,0,0,1-.37.24l-.16.09-.67.32a6.17,6.17,0,0,0-1.13.69,5.28,5.28,0,0,0-.45.4l-.15.15-.05.05q-.25.26-.55.62c-.24.28-.51.56-.79.83l-.26.26-.59.58-.21.21a16.18,16.18,0,0,0-1.35,1.47c-1.59,2-2.05,5-3.47,7.24a7.23,7.23,0,0,1-.67.89l-.21.23,0,0c-.14.14-.27.26-.41.36l-.11.08-.17.12-.17.1a3.19,3.19,0,0,1-.48.22l-.16.06-.3.08a5.82,5.82,0,0,1-.69.12l-1.33.13-.18,0-.17,0-.31.06-.38.11h0l-.3.13-.06,0-.14.09a2.37,2.37,0,0,0-.29.24l-.16.16c-.3.32-.57.71-1,1.15l-.17.17-.17.14-.18.14a1.44,1.44,0,0,1-.17.13l-.18.12-.17.11a7.79,7.79,0,0,1-.81.4l-.2.09-.2.08-1,.43a10.15,10.15,0,0,0-1.28.63,6.06,6.06,0,0,0-.59.4,9.82,9.82,0,0,1-1.77,1.16l-.24.12c-.24.11-.48.21-.74.31l-.27.1-1.26.41-.48.16a13.54,13.54,0,0,0-1.35.55c-.28.13-.55.28-.81.43a9.51,9.51,0,0,0-1,.64,1.42,1.42,0,0,0-.2.15l-.37.31-.31.27-.22.21-.31.33-.1.11-.09.1s0,0,0,0-.26.31-.38.47l-.13.16-.19.26h0l-5.33.67-3.9.47-1.18.15-2,.23-3.06.36-1.77.2c-6.14.71-12.16,1.37-18,2l-2.73.27-.28,0-4.14.4-.43,0-2.42.23-6.35.57-2.35.19q-3.74.31-7.33.57l-2.35.16-1.63.11-2.43.16q-4,.24-7.67.41l-2.33.1-2.46.09-2.31.07c-3.07.08-6,.12-8.74.1h0l-.37,7.27s-26.56.9-34.63.94c.08-.33.15-.67.23-1l.09-.32h0c0-.1.06-.2.1-.3s.07-.18.11-.26a1.77,1.77,0,0,1,.11-.21,3.32,3.32,0,0,1,.21-.34c1.3-1.67,2.31-.13,3.92-.74s.93-5.06.82-6.54,0-3.27-.76-4.49a7.36,7.36,0,0,0,2.55-2.79c1.4-2,2.24-3.92,4.76-4.2,2.24-.28,4.2.56,6.44.84,2.8.56,3.36-1.4,4.2-3.92,0-.56.56-1.4.28-2-.28-.84-1.4-1.4-1.4-2.24,0-2.8,6.72.84,7-2.8-.28-1.4-1.4-2.52-1.4-3.91,0-1.69,1.71-1.52,2.49-2.69a3.42,3.42,0,0,0,.62-2.34,6.58,6.58,0,0,1,.1-1.61c.8-4,3.76-3.64,7.15-4.28a21,21,0,0,1,10.09.48c1,.25,1.69.81,2.8.64,1.49-.23,1.11-1,2.17-1.41,2.09-.84,2.81,0,4.82.3,3.8.57,6.73-2.88,6.41-6.69-.33,0-.71-.09-1-.09a3.16,3.16,0,0,1,2.48-3.05c1.75-.29,1.94.76,3.13,1.62.91.66,2.71,2.57,3.8,2.65s1.79-1.1,3.16-1.2c1.81-.13,1.8,2,3.29-.55.64-1.07.26-2.93.34-4.2.2-3.72,1.53-4.09,4.71-5.36a56.6,56.6,0,0,0,1.45-6.67c.25-2.68,0-3.68,2.52-4.48,1-.32,2.1.1,3.07-.28s1.23-1.32,2.23-1.69c2.12-.8,4.47.34,6.25-1.6,2.29-2.5-.68-3.35.13-5.67a4.54,4.54,0,0,1,2.27-1.95,7.77,7.77,0,0,1,2.83-.86c1.36,0,1.48.84,2.59,1.07s2.46-.24,3.57.06c1.87.48,3.77,2.15,5.61,3.07a33.13,33.13,0,0,0,6.16,2.59c2.41.63,4-.06,6.45-.09,4.4-.06,7.76-1.42,12,.08,3.62,1.28,5.62,2.16,6.8,4.72.05.11.1.22.15.33s.12.3.18.46l.06.18a17.35,17.35,0,0,1,.65,2.64c.57,3.3,2.66,6.5,4.35,9.6.24.44.48.88.69,1.32a27.09,27.09,0,0,0,1.39,2.42c.24.37.49.73.74,1.08.5.7,1,1.36,1.57,2,.82,1,1.71,2,2.66,3.22A12.79,12.79,0,0,1,1189,439.91Z" transform="translate(-60.42 -53.76)"/></g><g id="KS"><path class="cls-1" d="M902.44,409.51c-1-.9-1.82-1.93-2.8-2.8s-2.2-1.3-2.77-2.38-.11-2.2-.17-3.33a6.07,6.07,0,0,1,.14-3.14c.86-2,2.51-4.25,1.06-6.44s-3.95,0-5.82-1.75a4.82,4.82,0,0,1-1.16-1.91c-41.66,2.78-129-2.61-151.18-4.08l-4.21,88.85c92,4.79,162.68,4.16,172.73,4L906,414.27C906.24,412.13,903.77,410.71,902.44,409.51Z" transform="translate(-60.42 -53.76)"/></g><g id="IA"><path class="cls-1" d="M998.22,330.13c-.13,1.39-1,2.24-1.5,3.55-.95,2.33-.93,3.75-3.32,4.7-2,.82-3,2.53-5.08,3.13-4.65,1.34-7.42,3.69-8.19,8.74,3.3,2.3,1.35,4.66,1.47,7.87.16,4.09-1.38,4.41-4.15,6.68-1.41,1.15-4.32,3.7-4.9,5.71l-.47-.25c-.56-.28-1-.66-1.58-.93a3.5,3.5,0,0,1-.84-.84c-.38-.37-.84-.75-1.22-1.12-.18-.28-.56-.56-.56-.84l-86.22,2.82-.07-.3a7.74,7.74,0,0,0-2.85-4.78c-2.4-2-1.09-2.78-1.35-5.44a14,14,0,0,0-.84-2.8c-.65-2.14.73-4.25-.59-6.31-.61-.95-1.71-1.64-1.93-2.8s.18-2.33.14-3.5c-.11-2.74-1.42-3.14-3.35-4.75.7-1.42.39-3.62.29-5.19a4.41,4.41,0,0,0-2.25-4.08c-.3-1,.12-1.94,0-2.92-.17-1.19-.53-.92-1.26-1.67-1.43-1.48.34-2.47,0-4.23s-1.89-2.4-2.26-3.89a29.54,29.54,0,0,1-.54-3.93,7.05,7.05,0,0,0-1.15-2.93,3.54,3.54,0,0,1-.44-1.39h0c0-.24-.07-.47-.12-.71a8.79,8.79,0,0,1-.56-4.2,11,11,0,0,0,.42-2.1v-2.1a7,7,0,0,0-.7-2.24,4.63,4.63,0,0,1,.14-2,5.78,5.78,0,0,1,.56-2.24,2.51,2.51,0,0,0,.56-2c-.14-.84-.84-1.26-1.26-1.82a2.76,2.76,0,0,1-.42-2.1c.14-.84.84-1.12.7-2a16.38,16.38,0,0,0-.26-1.68l5,0c19.86.06,90.74,0,107.73-2.9a13.52,13.52,0,0,0,1.54,5.55,7.87,7.87,0,0,1,1.25,4.15c-.09,1.66-1.19,1.73-1.83,3-1.5,3,2,5.21,2.91,7.65.49,1.32.26,2.89,1.58,3.84s2.87.46,4.26.78c1.85.44,2.51,1.67,3.11,3a8,8,0,0,0,1.87,3c1.08.93,2.41,1.32,3.17,2.62s.76,2.53,1.69,3.73,2.54,1.6,3,2.94-.08,3.35,0,4.66C997.74,327,998.36,328.67,998.22,330.13Z" transform="translate(-60.42 -53.76)"/></g><g id="IN"><path class="cls-1" d="M1125.4,408.32c-1.78,1.94-4.13.79-6.25,1.59-1,.37-1.34,1.35-2.23,1.69s-2.09,0-3.07.28c-2.49.81-2.27,1.8-2.52,4.48a56,56,0,0,1-1.45,6.68c-3.18,1.28-4.5,1.64-4.71,5.36-.08,1.27.29,3.12-.34,4.2-1.48,2.53-1.48.42-3.29.55-1.37.1-2,1.29-3.16,1.2s-2.89-2-3.8-2.65c-1.19-.87-1.38-1.91-3.13-1.62a3.15,3.15,0,0,0-2.48,3.05c.33,0,.7.07,1,.08.32,3.8-2.61,7.26-6.41,6.69-2-.3-2.73-1.15-4.82-.3-1.05.42-.68,1.17-2.17,1.41-1.1.17-1.8-.39-2.8-.63a20.93,20.93,0,0,0-10.09-.48c-3.39.64-6.34.3-7.15,4.28a6.63,6.63,0,0,0-.1,1.61,8.72,8.72,0,0,1-.8-6.44c.39-1.64,1.46-3,1.26-4.41-.26-1.71-1.53-1.61-1-3.65.34-1.28,2-2.61,2.52-4s.7-2.73,1.4-4.14c1.65-3.31,2.29-4.49,2.49-8.43,1.75-.18.9-1.08,1.15-2.07,0-.1.22-2.75.23-2.75-.71-1.81-2.69-2.24-3.37-4.19-.94-2.65.43-3,1-5.38,1.32-5.19-.37-12.57-.86-18-1.69-18.18-4.18-43.89-6-63.26a19.08,19.08,0,0,0,2.66,5c3.5,4.23,9.42,2.3,13.34-.23,1-.68,2-1.43,3-2.18a10.13,10.13,0,0,0,1.38-1.3c10.79-1,34.64-3.1,40.66-4.1l.1,2.3s-.25,0,.28-.06l11.81,82.14a4.53,4.53,0,0,0-2.28,1.95C1124.73,405,1127.7,405.82,1125.4,408.32Z" transform="translate(-60.42 -53.76)"/></g><g id="IL"><path class="cls-1" d="M1063.52,412.66c-.25,1,.6,1.9-1.15,2.07-.2,3.93-.85,5.12-2.49,8.43-.7,1.4-.82,2.71-1.4,4.14s-2.18,2.7-2.52,4c-.55,2,.72,1.94,1,3.65.21,1.41-.86,2.78-1.26,4.41a8.72,8.72,0,0,0,.8,6.44,3.45,3.45,0,0,1-.61,2.34c-.78,1.16-2.5,1-2.49,2.69,0,1.39,1.12,2.51,1.4,3.91-.28,3.64-7,0-7,2.8,0,.84,1.12,1.4,1.4,2.24.28.56-.28,1.4-.28,2-.84,2.52-1.4,4.48-4.2,3.92-2.24-.28-4.2-1.12-6.44-.84-2.52.28-3.36,2.24-4.76,4.2a7.41,7.41,0,0,1-2.55,2.79,2.63,2.63,0,0,0-1.55-1.11c-1.9-.54-2-.06-3-1.85-.84-1.52-1.79-1.92-2.8-3.19-1.52-1.9-.49-6.32-.74-8.77a7.33,7.33,0,0,0-1.27-4.12c-1-1.25-2.22-1.84-2.89-3.34-.48-1.09-.22-3.16-1.3-3.88s-3,.37-4.44-.19c-2.24-.87-4.61-4.33-6.3-6.22s-5.1-2.59-4.52-6c.14-.83.65-1.15.93-1.87a8.32,8.32,0,0,0,.37-2,12.4,12.4,0,0,1,1.17-3.91,9.66,9.66,0,0,0-.08-8.74c-1.53-2.81-4.43-3-6.45-.75-1.32,1.45-1.53,1.39-3.08,0a6.8,6.8,0,0,1-2.2-3.78c-.49-2.41-.65-5.76-2.47-7.65-.91-1-2.37-1.06-3.49-1.91a11.94,11.94,0,0,1-2.67-3.28c-1.58-2.35-4.09-2.69-6-5a14.28,14.28,0,0,1-3.52-7.06c-.44-2.55-2-5.28-1.81-7.88.11-1.44.72-2.54.56-4.14-.15-1.39-1.08-2.81-1-4.11a2.27,2.27,0,0,1,.09-.5c.57-2,3.49-4.56,4.9-5.71,2.78-2.27,4.31-2.58,4.15-6.68-.12-3.21,1.83-5.58-1.47-7.87.76-5.05,3.54-7.4,8.19-8.74,2.1-.61,3.05-2.31,5.08-3.13,2.39-1,2.37-2.38,3.32-4.7.53-1.3,1.37-2.16,1.5-3.55s-.49-3.17-.56-4.67c-.07-1.31.47-3.46,0-4.66s-2.19-1.82-3-2.94-1-2.51-1.69-3.73-2.09-1.69-3.17-2.62a8,8,0,0,1-1.87-3l61.39-5.69a21.14,21.14,0,0,0,1.7,9.05c1,2.06,2.16,4,3.08,6.08.17.39.34.77.5,1.17,1.81,19.37,4.3,45.08,6,63.26.5,5.4,2.18,12.78.86,18-.61,2.42-2,2.73-1,5.38.68,1.95,2.66,2.38,3.37,4.19C1063.74,409.91,1063.52,412.56,1063.52,412.66Z" transform="translate(-60.42 -53.76)"/></g><g id="ID"><path class="cls-1" d="M546,227.39c-4.41,1.62-8.61-.23-13.1.21-4.91.48-7,.25-11-2.94-1.88-1.51-2.64-3.52-4.05-5.4s-2.63-2.27-4.56-3.4c-3.18-1.88-1.81-4.78-1.38-7.68a14.56,14.56,0,0,0-1.06-8,17,17,0,0,1-.91-5.81c-.29-4.7-2.33-8.6-6.79-4.83-2.07,1.75-2.25,2.43-4.69.92a26.45,26.45,0,0,1-4.54-4.13,7.06,7.06,0,0,1,.55-10.78c1.5-1.2,3.25-1.77,4.21-3.64,1.11-2.14.18-4,.35-6.37.14-1.94,1.61-3.56,1.39-5.61-.4-3.9-7.76-3.38-10.42-5.53-3.18-2.58-5-6-6.59-9.58-1.71-4-3.69-7.26-3.43-11.77.15-2.61,1.28-2.65,2.59-4.69,1.58-2.46.38-2.49-.35-4.83-.3-1,.11-2.45-.27-3.36s-1.7-1.3-1.91-1.74c-1.29-2.58.75-7.81,1.3-10.62l1.92-10q1.29-6.7,2.59-13.42-12.14-2.3-23.33-4.56l-16,85.53v0c1.81,1.24,3.22,4.59,3.53,6.25.19.56-.19,1.31.19,2.05.56.74,1.49.93,2.24,1.49s.74,1.3.74,2.24a9.35,9.35,0,0,1,.38,2,9.91,9.91,0,0,1-.56,2.24,1.43,1.43,0,0,1-.19.75c-.37.74-1.12.93-2.05,1.3s-1.12,1.12-1.68,1.86c-.75,1.12-1.68,2.06-1.87,3.36-.19,1.5-.19,3.17-1.68,3.92v.19a22.24,22.24,0,0,0-3,3c-1.12,1.12-.93,2.42-.93,3.92,0,.56,0,.74-.56,1.12-.38.38-.94.38-1.31.75a10.29,10.29,0,0,0-1.49,1.12,4.54,4.54,0,0,1-1.12,1.49c-.37.56-.75.74-.93,1.5,0,.74-.18,2.24.18,2.8a3.69,3.69,0,0,0-.56,4.48,7.85,7.85,0,0,1,.37,2.24,7,7,0,0,1-.74,2.61c0,.37-.19.93-.19,1.5,0,.74-.18,1.5-.18,2.24.18.93.56,1.3,0,2.24a4.94,4.94,0,0,0-.37,1.31L422.91,284c19.6,3.83,40.42,7.47,62.11,10.67,20.73,3.06,42.26,5.72,64.25,7.77l11-74.5h0c-1.39-.26-6-1.15-7.32-1.3A13,13,0,0,0,546,227.39Z" transform="translate(-60.42 -53.76)"/></g><g id="HI"><path class="cls-1" d="M470.55,804.36c2.42,1.61,6.85-3.62,6.85-3.62C483,789.25,468.13,802.74,470.55,804.36Z" transform="translate(-60.42 -53.76)"/><path class="cls-1" d="M508.61,784.42c-5.23.2-16.91,2.28-16.11,8s4.43,5.31,4.43,5.31,12.08,6,14.7,0S513.84,784.22,508.61,784.42Z" transform="translate(-60.42 -53.76)"/><path class="cls-1" d="M568.81,809.39c-3.62,2.42-12.06,5-10.27,8.46,0,0,4.83,10.47,8.46,10.67s7.65-4.43,9.67,0,11.48,1.81,4.43-6S572.44,807,568.81,809.39Z" transform="translate(-60.42 -53.76)"/><path class="cls-1" d="M622.77,833.73c-4.83.83-10.87,1.84-14.5.43,0,0-6.44-1.61-7,1.41s5.44,1.81,9.46,4.43,12.68.8,14.7-1.41S627.61,832.9,622.77,833.73Z" transform="translate(-60.42 -53.76)"/><path class="cls-1" d="M612.51,844.63c-5-1.21,1.45,9.26,1.45,9.26,1.07,1.87,2.57,2.62,7.81,0S617.54,845.84,612.51,844.63Z" transform="translate(-60.42 -53.76)"/><path class="cls-1" d="M655.19,850.06c-10.07-4.62-17.92-6.27-19.53-8.77s-6.24-1.93-7.65,0-2.69,3.6-1.28,4.75c0,0,6.31,4.63,9.13,10.87s11.68,4,14.5,3.22S665.26,854.68,655.19,850.06Z" transform="translate(-60.42 -53.76)"/><path class="cls-1" d="M707.95,905.44c-7-3.22-6-6.85-7.25-9.87s-8.46-9.67-12.28-11.08-23.36-15.1-25.57-7.85l.2,1s6.84,6.44,0,11.88-8.64,7.85-3.92,13.29,4.43,10.07,3.57,13.49.55,16.92,3.37,18.12,7.85,2.22,10.07-1,9.67-14.5,16.71-13.09,11.08-3.62,11.68-3.82S715,908.66,707.95,905.44Z" transform="translate(-60.42 -53.76)"/></g><g id="GA"><path class="cls-1" d="M1245.91,592.59l-.21.23c-.4.41-1.08.36-1.47.82s-.23,1.11-.51,1.49c-.94,1.27-1.28,1.24-2.88,1.39-1.23.12-2.31-.77-3.2.84-1,1.76.42,1.37,1,2.47.76,1.49-.42,4.43-2.11,5.43.05,1,.8,1.71.74,2.71-1.26.36-3.2,1.53-3,3s2,1.84,1.81,4-1.57,2.63-2.92,4c-.93.94-1.8.77-.3,1.85a6.38,6.38,0,0,0,2.72.38c-.73,2.33-1.42,4.54-.61,7a6.94,6.94,0,0,0,.49,1.11c-1,1-2.12,2-3.19,2.95-1.4,1.4-3.36.28-5-.28q-2.94-1.26-4.2,1.68c-.56,2,0,3.36,0,5-.28,2-.84,3.92-3.08,3.36-2-.28-2-2.52-3.64-2.8a9.45,9.45,0,0,0-2.8,0l-62.71,5a6.3,6.3,0,0,1-1.38-.06,3,3,0,0,1,.58-.36,11.81,11.81,0,0,1,2.11-.42h-.52l-.25,0c-2-.1-3.64-4.14-4.23-6.78a8,8,0,0,1-.23-1.65c0-1.4-.28-1.4-1.12-2.52-1.4-1.4-1.4-2-1.12-3.64,0-.56.28-1.68.28-2-.28-.84-.84-1.4-.84-2.24-.28-1.4-.28-1.68-.56-2.8a19.44,19.44,0,0,1-1.4-3.64,5.43,5.43,0,0,1,.84-3.64,9.9,9.9,0,0,0,.84-3.92,21.23,21.23,0,0,0-.28-4.2c-.28-1.4-.84-2.24-.56-3.64.28-2,2.52-5.88.84-7.84-.84-.56-1.68-.28-2-1.4,0-.56.56-1.4.28-2-.28-1.68-1.4-1.12-2.52-1.4-2.24-.56-3.08-3.36-2.52-5.32l-15.84-62.23c10.72-1.15,21.12-2.38,30.59-3.68,11.6-1.59,21.82-3.28,29.58-5.05a11.12,11.12,0,0,0-2.07,3.49c-.28,1.12-.28,1.68-.56,2.52-.84,1.4-1.12,2.24-.56,3.64.56,1.68,1.12,4.48,3.36,5,1.4.28,2.52-.28,3.92.28a5.71,5.71,0,0,1,1.68,2c.84.84,1.12.28,2,.56,1.12.56,2.24,2.52,2.8,3.64,1.31,2.63,3.72,3.35,4.6,6.18,1.16,3.74,1.34,3,4.63,5,1.66,1,2.68,2.82,4.27,3.85,1.84,1.19,3.49,2.55,5.32,3.93,3.21,2.42,4.23,5.42,8.33,7.07a14.07,14.07,0,0,1,3.36,2.23,18.91,18.91,0,0,0,3.92,2.52c.84.56,1.4,2.52,2,3.64.28.56.28,1.4.56,2.24,0,.56.56,1.12.84,1.68.56,1.12.56,2.52,1.4,3.36.56.56,1.4.56,1.68,1.4a4.51,4.51,0,0,1,1.12,2c.56.56,1.4.84,2,1.4a5.19,5.19,0,0,1,.56,2c.28,1.4-.28,2.52,1.4,3.08a8.63,8.63,0,0,1,3.92,2.52,2.79,2.79,0,0,0,1.4,1.12A21.6,21.6,0,0,1,1245.91,592.59Z" transform="translate(-60.42 -53.76)"/></g><g id="FL"><path class="cls-1" d="M1293,751.38a43.79,43.79,0,0,0-1.56-7.52c-1.09-4.67-3.05-9.33-4.53-13.92-1.42-4.4-2.85-9.8-5.5-13.54a26.93,26.93,0,0,0-5.3-5.57c-1.75-1.39-4.44-2.11-4.37-4.8,2.38,1.64,4.69,5.8,7.22,6.76,3,1.13.54-2.11.05-3.63-.75-2.34-.56-3.8-2.35-5.6-3.1-3.12-4.35-7.71-6.24-11.57-1.56-3.17-4.65-6.51-7.13-9.13-1.66-1.75-3.51-2.37-5-4.3s-2.86-3-3.88-5.26c1.85,0,6.52,2.32,6.14-1.06-.26-2.24-3.77-3.23-5.31-4.36-2.78-2-7.4-4.95-8.88-8.17-.88-1.9-1.17-4.6-1.81-6.65s-1.13-4.39-1.79-6.55c-1.24-4.06-2.46-8.8-4.28-12.64-.79-1.67-2.16-3-3-4.6-1,1-2.12,2-3.19,2.95-1.4,1.4-3.36.28-5-.28q-2.94-1.26-4.2,1.68c-.56,2,0,3.36,0,5-.28,2-.84,3.92-3.08,3.36-2-.28-2-2.52-3.64-2.8a9.45,9.45,0,0,0-2.8,0l-62.71,5a6.3,6.3,0,0,1-1.38-.06,3,3,0,0,1,.58-.36l-.5.16a5.58,5.58,0,0,1,1.84-.55c-2-.1-3.64-4.14-4.23-6.78l-53.34,5.88c-3.11.34-10.41,2.54-13.18.81-.48,2.08.64,3.63,1.88,5.17.65.8,1.64,1.35,2,2.44s-.36,2.54,0,3.66c.74,2.08,2.37,2.56,2.74,5a22,22,0,0,1,.19,4.29c1.38.14,2.77-1.3,3.87-2.06,2-1.37,3.25-1.79,5.71-1.19-2.08,3.63,6.52,1.09,7-.58a6.32,6.32,0,0,1-2.74.19c.79-1.93,4.05-5.54,6.07-6.28,2.75-1,6.41.3,8.93,1.3-.84-.23-2.23,0-2.18,1.14.06,1.41,1.65.49,2.46.37a51.81,51.81,0,0,1,6.28-.69c2.34-.06,3.46.85,5.28,2.16,1.23.89,3.65,4.12,4.72,4.24.4-2.15-1.36-3.89-.58-6,1.23,2.14,5.44,4.16,5.07,6.87-.57,0-.8.33-1.33.38.38,1,2.73,2.73,3.62,3.21,1.22.67,3.71.47,4.49,1.92s-.37,3.63.31,5.12c1,0,1.63-.79,2.26-1.59,2.18,1.14,4.51-4,7.23-2.14,1.58,1.06-.1,3.08,2.31,2.91,1.65-.12,2.28-1.85,2.2-3.3,3.12,1.47,3.05.58,4-2.14s2.59-2.49,5.15-2.69c0-1.28-1.35-1-1.38-2.16,0-.52,1.17-1.57,1.53-2,1.12-1.15,3.44-1.38,4.16-2.53,4.79,1.83,9.27,4.87,13.87,7.12a15.52,15.52,0,0,1,5.73,4.51c1.18,1.58,1.22,3.44,2.86,4.59.81.57,1.62.4,2.35,1.21s.65,2.32,1.47,3.16c1.8,1.86,4.51.38,6.73,1.25,3,1.19,5,6,7,8.35,2.59,3,2.34,6.1,2,9.81-.41,3.94-4.1,7.11-2.32,11.38.75,1.8,1.14,2.13.72,4.42-.34,1.91-.71,3,.25,4.76.36.66,1.91,3,2.72,3.22,2.25.61,1.56-1.71,1.68-3.3,2.28.48,1.64-3.09,4.39-2.52a16.79,16.79,0,0,1-1.24,8.92c-1.53,3-1.73,4.2,1.1,6.5,2.32,1.89,2.16,3.48,3.75,5.84,2.41,3.58,3.74,12.28,9.84,10.27-1.38-2.73-.18-7.74,1.42-3,.66,2,.18,8.48,3.33,8.31.15-.82.64-3.29,2-2.76,1.21.46.38,2.7.25,3.65a8.23,8.23,0,0,0-.32,1.75c.14.73.9.88,1,1.42.31,1.21-.05,2.51.35,3.74,1.31,4,4.86,6.71,7.35,10,2.63,3.43,5.56,3.15,9.87,3.07s5.64.79,8,4.14c2.72,3.86,3.27,5,7.77,3.27,5.8-2.28,4.56,3.09.36,4.56-2,.71-9.78-.16-9.73,3.41s7.09,2,8.87,1.3c3.54-1.39,7.2-1.86,10.72-3.1,7.35-2.6,3.81-17.32,5.93-23.43,1.14,1.23,1.63,6.12,2.54,2.31.58-2.39-.46-5.74-1-8.05A46.23,46.23,0,0,1,1293,751.38Z" transform="translate(-60.42 -53.76)"/></g><g id="DE"><path class="cls-1" d="M1337.56,367.07c-1.86-1.32-3.95-2.8-5.08-4.83s-.82-4.71-2.4-6.53c-.77-.88-4.36-3.15-3.07-4.76.47-.58,1.1-.31,1.74.26,0,0,0-.05,0-.08-.42-1-1.12-1.26-1.12-2.24v-1.54c0-1.06-1.38-1.84-1.36-3.1a2.62,2.62,0,0,1,.85-1.81,4.2,4.2,0,0,0-.75-.27,10,10,0,0,0-2.94-.56,3.56,3.56,0,0,0-2.66.28,27.77,27.77,0,0,1-2.94,1.54c-.56.14-1.12.28-1.26.84s-.14.84-.28,1.26a4.34,4.34,0,0,1-1.26,1,4.72,4.72,0,0,0-.82,1.17l5.72-1,6.44,29.12,14.66-4.4a1.54,1.54,0,0,1-.06-.17A7.49,7.49,0,0,0,1337.56,367.07Z" transform="translate(-60.42 -53.76)"/></g><g id="CT"><path class="cls-1" d="M1351.43,267.24c0,.23-.1.37-.16.31l6.85,29.12a3.33,3.33,0,0,1,2-.92,6.25,6.25,0,0,0,2.68-1.25c.81-.78.66-2.13,1.45-2.83s2.05-.61,2.93-1.4,1.12-1.64,2.43-1.88c2.19-.4,3.89-2,6-2.65a45,45,0,0,1,5.8-1.45c.73-.1,1.36.15,2.08-.28s.87-1,1.35-1.5,1-.49,1.57-.77.61-.56,1.08-.95c1.46-1.21,4.51-2.07,6.16-.72a12.35,12.35,0,0,0,1.31,1.21l-5.88-22.69C1376.19,261.33,1355.52,266.26,1351.43,267.24Z" transform="translate(-60.42 -53.76)"/></g><g id="CO"><path class="cls-1" d="M698.16,351.61c-34.81-2.38-78-7.66-109.73-11.92L573.45,459c47.85,5.74,95.69,9.63,139.65,12.27q11.39.68,22.41,1.25l4.21-88.85,1.48-31.15C730.52,353.25,715.36,352.79,698.16,351.61Z" transform="translate(-60.42 -53.76)"/></g><g id="CA"><path class="cls-1" d="M443,517.43a.79.79,0,0,0,0-.11.81.81,0,0,1-.13-.42c-.46-.71-1-1.34-1.4-2s-1-2.24-1.82-2.38a3.05,3.05,0,0,1-2.1-2.38c-.28-.84,0-.84.42-1.54s.28-1.26.42-1.82a2.84,2.84,0,0,0,0-1.54c-.28-.7-.84-1.4-.7-2.1a6.9,6.9,0,0,0,.1-3.23,9.56,9.56,0,0,1,.23-2.57l-101.13-141,2.52-7.7L359,270c-43.55-10.54-75.29-20.32-88.31-24.5.14,2.54-.53,5.18-.38,7.74a20.64,20.64,0,0,1,.24,4.59c-.21,1.19-1,2-1.37,3.12-.89,2.35-.43,4.93-1.58,7.24a11.92,11.92,0,0,0-1.58,3.75c-.18,1.31.15,2.23-.9,3.19-.77.69-2.13.56-2.09,1.8,0,1,1.65,1.47,1.1,2.7-.77,1.75-4.62,1-6,2.66a16.69,16.69,0,0,0-2.68,6.7c-.22,2.25,1.7,4.64,2.5,6.68,1,2.67,1,5.66,2.42,8.16s2.22,4.13,2,7.21a45.72,45.72,0,0,1-.89,8.24c-.58,2.29-2.59,4.63-2.06,7s1.65,4.71,1.62,7.22c0,1.63-1.37,2.4-1.79,3.81-.37,1.24.21,2,.74,3.09a95.25,95.25,0,0,1,4.17,9.24,27.12,27.12,0,0,0,2.51,4.45,7.8,7.8,0,0,1,1.33,5,6.31,6.31,0,0,1-1.33,4.64c-.93,1.21-2.84,2.12-.73,3.3,1.57.9,2.54.8,3.67,2.43.38.55.77,1.6,1.46,1.8.85.23,1.23-.82,1.93,0,.48.53-.09,1.7.43,2.35s1.52.35,1.95.93c.85,1.13-.87,3.07-1,4.24-.11.9.16,1.7-.52,2.44s-1.34.31-1.69,1.2c-.61,1.56,1.57,2.62,1.61,4.09.12,4-2.08,6.57.68,10.19.93,1.22,1.4,2.7,2.64,3.72s2.84,1.62,4,3a4.63,4.63,0,0,1,1.43,4.16c-.1,1.06-.23,3.9-2,3.23-.21-.93-.56-2.58-1.87-2.18a22.23,22.23,0,0,1-.82,5.87c-.57,1.88-1.58,3.08-1.06,5.14,1,4,3.61,6.46,5.24,10,.67,1.45,1.76,2.86,1.66,4.52-.13,2-1.36,3.18.71,4.56,1.86,1.24,1.58,1.51,2.27,3.64.52,1.62,2,1.75,2.51,3.43.27.88.2,1.62,1,2.26.57.47,1.38.45,2,1,1.47,1.32,3.38,6.13,2.4,8.06-.16.31-.59.35-.77.64a8.71,8.71,0,0,0-.3,1,10.9,10.9,0,0,0-.93,2.33c.7-.56,1.3-2.24,2.37-2,0,.28.1.65,0,.93a2.7,2.7,0,0,1,2.35,1.11c1.36,2-.86,3.85-1,5.85a14.49,14.49,0,0,1-.07,3,25,25,0,0,0-.92,2.63c-.15,1,.09,2.06-.45,2.93s-1.69,1.07-2.15,1.91c-1,1.79,2.17,3.14,3.28,4a12,12,0,0,0,5.6,2.73c2,.36,4.46.15,6.23,1.13s2.54,2.88,4.94,3,4,.92,6.19,1.55c2.73.78,3,2.44,4.59,4.54.64.85,1.54,1.44,2.17,2.3.77,1.05,1,2.36,1.69,3.46,1,1.6,3.55,2.44,5.18,3.3,2,1.07,4.06-.12,5.93,1.49,1.59,1.37,3.57,2.86,3.32,5.08-.22,1.94-.39,4.77,2.38,4.84,2,0,3.48-2.18,4.92.25,1.12,1.89,1.35,3.63,3.06,5.19s3.88,2.4,5.11,4.38a36.6,36.6,0,0,1,3.89,8.05c1.6,5.37,1.25,10.68.8,16.13,1.16-.52,1.23-1.64,2.67-1.72,1.28-.06,2.73.87,1.57,2.2-.92,1.06-2.54.34-3.05,1.95a7.18,7.18,0,0,0,.2,2.83c.33,1.32.45,1,1.45.92a6,6,0,0,1,1.74.25c1.66.34,3.63.33,5.35.5,5.07.5,10.19,1,15.28,1.37,5.72.41,11.45,1.06,17.16,1.6,4.66.44,9.32.86,14,1.33l5.32.5a1.93,1.93,0,0,1,1.18-.66c1-.14,2.66.28,3.36-.7a7.83,7.83,0,0,0,.42-3.08c0-.56.56-1,1-1.4-.14.14-.84-.14-1.12-.28v-.14c-.14,0-.28-.14-.42-.28s-.56-.42-.84-.7-1-.28-1.26-.56c-.84-.7-1-2.24-1.26-3.08-.14-.56-.14-1-.28-1.4a1.28,1.28,0,0,1,0-1.4c.56-.7,1.26-2.1,2.24-2.1a2.82,2.82,0,0,0,2.52-1.4c.28-.84-.14-2,.42-2.66s2.1-.42,2.66-1.26,1.12-1.26,1-2.24c-.14-1.26-.84-2.1-.42-3.22.14-.56.56-1,.56-1.54a2.6,2.6,0,0,0-.28-1c-.28-.28-.84-.42-.84-1s.56-.42,1.12-.7a5.25,5.25,0,0,0,1-.84c1-1.12-.14-2.8,1.26-3.78a9.5,9.5,0,0,1,3.78-1.4c.84-.14,1.12-.56,1.82-.84a2.63,2.63,0,0,1,1-.28h.42c.42-.14.14-.28.28-.56.42-.7,1-.7,1-1.68,0-.56.28-1.82,0-2.24S443.31,517.72,443,517.43Z" transform="translate(-60.42 -53.76)"/></g><g id="AR"><path class="cls-1" d="M1012.13,494.11a14.73,14.73,0,0,0,.93-2.05,4.56,4.56,0,0,0,.28-2,6.39,6.39,0,0,0-1.37-3.17h0c-3.09.19-84.91,5.25-103.13,5.32l3,83c.16.17.31.34.45.51.52.63.72,1.45,1.56,1.72s1.66-.7,2.52-.86a4.94,4.94,0,0,0,2-.58c1.34-.84,2.75-2,4.21-1.38l.63,19.82,70.3-2.87h0c-.1-.38-.17-.72-.19-.89a5.09,5.09,0,0,1,.76-3.32c1.79-3.59-.35-2.13-2.58-3.81,0-2.11,4-4,2.58-6.5-1.24-2.28-3,1.59-4.3,2.63-2.09-1.88.69-5,1.12-7.07s.65-1.69,1.91-3a5.92,5.92,0,0,0,1.45-3.55c.13-1.44-.32-3.08,0-4.48.44-2,1.26-1.14,2.44-2.09,1.76-1.42-.65-6.29,1.64-6.34.29-1,2.7-2.55,3-.93,2.2.14,2.25-5.41,2.62-6.84a5.61,5.61,0,0,1,.9-2.1c.62-.52,1.37-.09,1.48-.16,1.2-.82.87-2.38,1.12-3.75a17.73,17.73,0,0,1,3-7.55l.27-.34c1-1.23,2.57-1.41,3.65-2.52s.86-2.19.69-3.78a32.31,32.31,0,0,1-.37-4.3c.07-1.85.77-2,1.86-3.21,1.24-1.45.57-3,.85-4.74a7.06,7.06,0,0,1,1.8-3.43c1.88-2.45,3.89-5.51,4.36-8.69-3.85.66-7.86.62-11.75.9S1011.38,495.84,1012.13,494.11Z" transform="translate(-60.42 -53.76)"/></g><g id="AZ"><path class="cls-1" d="M456.19,465.22v-2.06a6.59,6.59,0,0,1-.24,1.43c.08.6.13,1.2-.6,1.61-.93.52-2,0-2.91.83s-.88,1.84-2.17.32c-1-1.15-.92-1.78-2.65-1.85a6.17,6.17,0,0,1-3.62-1.12c-.9-.49-2.25-.77-2.8.42-1,2.22,1.31,5,.46,7.43a19.23,19.23,0,0,1-1.68,2.51c-.72,1.33,0,2.22-.17,3.64-.12,1.17-3.21,5.16-.87,6a5.33,5.33,0,0,1-.43,4.27c-.34.59-.89.86-.94,1.58s.46,1.15.42,2c0,.6-.46,1.16-.42,1.95a10.59,10.59,0,0,0,.45,1.93,3.8,3.8,0,0,1,0,1.23,9.56,9.56,0,0,0-.23,2.57,6.9,6.9,0,0,1-.1,3.23c-.14.7.42,1.4.7,2.1a2.84,2.84,0,0,1,0,1.54c-.14.56,0,1.26-.42,1.82s-.7.7-.42,1.54a3.05,3.05,0,0,0,2.1,2.38c.84.14,1.4,1.68,1.82,2.38s.94,1.28,1.4,2v0a.41.41,0,0,1,.1.17l.32.53a.81.81,0,0,1-.29-.25.79.79,0,0,1,0,.11c.28.28.56.42.84.7s0,1.68,0,2.24c0,1-.56,1-1,1.68-.14.28.14.42-.28.56h-.42a2.63,2.63,0,0,0-1,.28c-.7.28-1,.7-1.82.84a9.5,9.5,0,0,0-3.78,1.4c-1.4,1-.28,2.66-1.26,3.78a5.25,5.25,0,0,1-1,.84c-.56.28-1.12.14-1.12.7s.56.7.84,1a2.6,2.6,0,0,1,.28,1c0,.56-.42,1-.56,1.54-.42,1.12.28,2,.42,3.22.14,1-.42,1.54-1,2.24s-2,.56-2.66,1.26-.14,1.82-.42,2.66a2.82,2.82,0,0,1-2.52,1.4c-1,0-1.68,1.4-2.24,2.1a1.28,1.28,0,0,0,0,1.4c.14.42.14.84.28,1.4.28.84.42,2.38,1.26,3.08.28.28.84.28,1.26.56s.56.42.84.7.28.28.42.28v.14c.28.14,1,.42,1.12.28-.42.42-1,.84-1,1.4a7.83,7.83,0,0,1-.42,3.08c-.7,1-2.38.56-3.36.7a1.93,1.93,0,0,0-1.18.66l.47,0-4.06,7.79v.09l85.77,48.25v.1l47.08,5.73L573.45,459c-38.29-4.59-76.92-10.43-113.22-17.69Z" transform="translate(-60.42 -53.76)"/></g><g id="AK"><path class="cls-1" d="M506.56,917.9c-10.83-3.88-17.17-6.34-25.54-19.62s-16.55-23.5-22.07-26.36-6.74-6.13-9.81-12.46-10.42-6.34-15.12-1.64-4.7,13.49-8.58,10.22-14.3-12.88-15.53-17.78-.82-5.72-5.31-5.11-13.89,11.24-13.28-9-.2-171.45-.2-171.45-11-9-14.51-9.4-20.43,1.43-23.91-1.43-6.95,2-11.24-2.65-12.06-8.79-18.39-8.79-10.22,0-11-6.13-1-6.33-8.38-4.7-3.27-1-5.72-4.7-12.06-11-16.76-4.29-13.9,3.06-13.9,3.06-5.72.82-9,3.27a13.56,13.56,0,0,1-10.83,2c-2.66-.82-5.93.41-9.6,7.15s-6.34,11.85-14.3,11-24.32-2.86-18.39,7.77,10.83,19.82,10.22,24.52,4.5,5.93,4.5,5.93a5.64,5.64,0,0,1,2.25,4.7c0,3.27,1.43,9.19,3.06,10.62s4.5,9.4-4.29,6.13-14.51-4.7-11.24-11-4.5-6.74-4.5-6.74-10.63-2.24-10.83,2.25-7.56.82-7.56.82-22.89-2-14.51,7.15S179,715.4,179,715.4s-2,9.6,2,11.85,11.24,4.29,14.3,4.29,4.91,1.84,7.76,3.47a6.42,6.42,0,0,0,6.95,0c1.43-1,17.16-5.11,12.26,2s-4.09,10.63-4.09,10.63-.61,10.42-6.95,10.63-7.15-4.09-11.44-1-6.33,4.72-8.58,1-7.76-7.77-12.67-2.05-7.36,10.42-16.14,15.73-6.34,18.8-3.88,19.62,10.62-2.86,2.45,5.11-5.93,4.29-3.07,9,3.88,4.29,3.47,7.35,1.84,10.63,8.38,9.2,14.71-7.36,14.31-2.25-3.47,11-.41,11.85,2.86,2-3.06,2.24-2,2.45-2,3.89-1,9.19-4.5,9.6-2.25,2.45,3.88,2.25,3.27-3.07,6.95-3.07,11.44-.41,10.63,2-.41,3.68,2.45,3.27,7.36-4.29,5.11,3.06,4.09,10,4.5,5.32,4.5-7,5.31-3.48,1.63,3.48,4.5,1.84,10-8,7.35-1.84-4.7,6.13-6.33,8.38-3.68,8.38-5.52,11.45-3.27,4.9-6.74,4.9-5.72.2-6.33,3.27.61,7.15-5.52,5.52-17.78,4.7-18.39,6.95-2.86,4.29-6.13,2-10.42-1.63-16.76,2-10.22,8.78-15.94,7.15-18.19.2-18.19,3.88.82,5.52,6.54,3.06,6.13,1.82,9.81,1.12,9.81-3.57,14.92-4.18,6.95-3.88,10.22-3.88,5.31,4.09,9.2,1.84,7.76-4.49,10.22-1,4.09-3.68,9.19-3.88,8.17,5.72,10.83,1.84-3.47-13.69,5.31-12.47,13.9-.21,18-3.27,43.32-21.66,37.6-28.2-3.68-10.42-.2-11.45S271.36,848,274,843.31s11-20.64,23.09-19.41,9.4,6.95,3.47,5.52-13.89,3.68-15.94,12.46-5.93,10.83-2.25,10.83,5.31,2.25.41,3.27-7.36,4.7-2.66,6.13S295.27,859,296.49,857s2.66-8.38,8.58-8,10.42,5.93,13.08,1.84-1.23-16.55,3.68-16.76,18.8-2.65,14.92,3.48S313.25,862.11,320.4,858s13.08-12.87,16.76-11,2.86-2.66,7.76-.82,13.69,6.54,22.48,6.33,9.6,4.7,17,5.93,11.85,2.24,14.3-1,9.19-4.5,5.11,0-8.79,7.36-4.09,8.79,26.77,11,29.63,17.16,4.5,3.27,6.13,1.64,3.47-.61-1.63,6.54c0,0,.41,2.25,3.47,7s2,11.85,6.74,13.48,3.07,10.63,9.2,14.51.82-22.68,4.29-11.24,4.09,15.7,5.52,10.4,5.11-9.59,4.7-.59,5.72,8.78,2,10.83-5.93,4.5-1.84,4.91,16.35,16.76,13.49,12.67-1.39-8.58.43-5.32,8,6.34,6.73-.2-6.63-17.57.16-13.08S503.08,955.5,506.56,951,517.39,921.78,506.56,917.9Z" transform="translate(-60.42 -53.76)"/><path class="cls-1" d="M261.07,884.32c-6.67-2.45-10.49,1-15.39,2.59s-2.18,10.22-2.18,10.22-.13,1.36,2.73,5.58,14.57-6,22.07-8.72S267.75,886.77,261.07,884.32Z" transform="translate(-60.42 -53.76)"/><path class="cls-1" d="M223.07,917.29c-.41.27-.27,3.4,2.18,3.4s2.18-4.5,2.18-4.5C226.2,910.88,223.47,917,223.07,917.29Z" transform="translate(-60.42 -53.76)"/><path class="cls-1" d="M273.74,875.32c-2.72-.28-2.86-.81-1.09-4.76S268,873,263.8,875.74s-2.73,2.45-.82,4.63,8.33,0,8.33,0-2.65.68,0-.55S276.47,875.6,273.74,875.32Z" transform="translate(-60.42 -53.76)"/><path class="cls-1" d="M177.09,917.76a2.83,2.83,0,0,0-4,.34s-1.23,3.07,1.5,2.73S179.34,919.54,177.09,917.76Z" transform="translate(-60.42 -53.76)"/><path class="cls-1" d="M167.83,915c-2.18,1.29,1.63,1.36,1.63,1.36s3.13-.41,3.33-1.77S170,913.75,167.83,915Z" transform="translate(-60.42 -53.76)"/><path class="cls-1" d="M92.76,914.9c-4.08.2-1.63,2.32-2.72,5s-3,2.31-3,2.31c-3.61,2.25,2.86,3.06,5.79,3.06s8.11-1.5,8.24-4.63S96.85,914.69,92.76,914.9Z" transform="translate(-60.42 -53.76)"/><path class="cls-1" d="M67.42,919c-3.75.68-7.49,3.41-6.95,5.45s6.2-.34,9.94-1.84a17.83,17.83,0,0,1,7.9-1C87.11,917.49,71.17,918.31,67.42,919Z" transform="translate(-60.42 -53.76)"/><path class="cls-1" d="M92.27,771.25l-.12-.17Z" transform="translate(-60.42 -53.76)"/><path class="cls-1" d="M92.27,771.25l-.12-.17.12.17,0-.06c-.13-.19-.79-5-4.37-3.89s-.21,7.15,0,7.87,3.68,5.72,6.33,4.09c2.32-1.42-1-6.57-1.83-7.87Z" transform="translate(-60.42 -53.76)"/><path class="cls-1" d="M137.77,799.12c-3.68-1.07-4,2.66-3.17,4.5a19.23,19.23,0,0,0,9.3,8.43c5.16,2.14,5.21-.77,7.92-6S137.77,799.12,137.77,799.12Z" transform="translate(-60.42 -53.76)"/><path class="cls-1" d="M135.37,724.69a16.07,16.07,0,0,1-5.93-7.56c-.82-2.35-2.86-1.23-4.09,2s-3.45,8,6,9.5c0,0,5.82,4,6.54,8.38s7.66,3.58,5.62-1.73A21.92,21.92,0,0,0,135.37,724.69Z" transform="translate(-60.42 -53.76)"/></g><g id="AL"><path class="cls-1" d="M1145.77,632.51c-1.4-1.4-1.4-2-1.12-3.64,0-.56.28-1.68.28-2-.28-.84-.84-1.4-.84-2.24-.28-1.4-.28-1.68-.56-2.8a19.44,19.44,0,0,1-1.4-3.64,5.43,5.43,0,0,1,.84-3.64,9.9,9.9,0,0,0,.84-3.92,21.23,21.23,0,0,0-.28-4.2c-.28-1.4-.84-2.24-.56-3.64.28-2,2.52-5.88.84-7.84-.84-.56-1.68-.28-2-1.4,0-.56.56-1.4.28-2-.28-1.68-1.4-1.12-2.52-1.4-2.24-.56-3.08-3.36-2.52-5.32l-15.84-62.23c-20.36,2.18-41.9,4.07-60.6,5.55v.12c0,1.12-.28,2.24-.28,3.36a24,24,0,0,1,0,4.48,18.86,18.86,0,0,0-.56,3.92c0,5,.56,10.08.56,15.4v8.12c0,2.24-.56,4.48-.56,7,0,5.32-.28,10.64.28,15.68.28,3.08,0,6.16,0,9,0,3.36.28,6.44.28,9.52,0,5.88.56,11.48.56,17.36,0,2.8.56,5.6.56,8.4v8.4c0,1.68.28,3.36-.84,4.48-1.12,1.4-1.12,1.68-.84,3.08a7,7,0,0,1,.28,2.24c1.12.84.56,2.8-.28,3.64-.28.56-.56.56-.56,1.12a21.23,21.23,0,0,0,.28,4.2,19.52,19.52,0,0,1-.21,4.52l.2.05c2.75,1,2.13,3.72,5.83,3.07.53-1,.65-3,1.79-3.5,1.45-.63,2.22,1.09,3.26,1.27-.21-2.17,2.08-3.93,2.7-6,.43-1.43.29-6.12,2.9-5.39-1.36,3.52.81,3,2.57,5.34,1.49,2-.25,4.51-.54,6.61,1.33.29,4.13-.79,5.55-1.08.7-.14,1.47-.84,2.25-.56s.37,1.48,1,1.76a1.73,1.73,0,0,0,.54.14,22,22,0,0,0-.19-4.29c-.37-2.46-2-3-2.74-5-.4-1.12.31-2.55,0-3.66s-1.33-1.64-2-2.44c-1.24-1.54-2.36-3.08-1.88-5.17,2.76,1.73,10.07-.47,13.18-.81l53.34-5.88a8,8,0,0,1-.23-1.65C1146.89,633.63,1146.61,633.63,1145.77,632.51Z" transform="translate(-60.42 -53.76)"/></g></svg>